<?xml version="1.0" standalone="no"?>
<!DOCTYPE svg PUBLIC "-//W3C//DTD SVG 1.1//EN" "http://www.w3.org/Graphics/SVG/1.1/DTD/svg11.dtd" >
<svg xmlns="http://www.w3.org/2000/svg">
  <metadata>Created by iconfont</metadata>
  <defs>
  <font id="iconfont" horiz-adv-x="1024">
    <font-face
      font-family="iconfont"
      font-weight="400"
      font-stretch="normal"
      units-per-em="1024"
      ascent="896"
      descent="-128"
    />
      <missing-glyph />
      
      <glyph glyph-name="qiyeweixin" unicode="&#58892;" d="M918.644575 286.580438c-1.477712-7.443292 1.477712-18.608231-2.955425-22.986638a250.937467 250.937467 0 0 1-67.536932-132.82993 66.16868 66.16868 0 0 0-77.114698-52.650348 74.432924 74.432924 0 0 0-62.337573 71.91534 68.029503 68.029503 0 0 0 54.128059 66.059219 245.573918 245.573918 0 0 1 132.829931 67.536932c4.487867 4.487867 15.598076 2.955425 23.041368 2.955425zM984.703795 426.08744A69.945056 69.945056 0 0 0 1054.484661 370.481668a246.285409 246.285409 0 0 1 67.536932-132.829931c4.487867-4.487867 1.477712-17.130518 2.955425-24.519081l-16.419028-0.875681a11.329129 11.329129 0 0 0-7.935863 2.353394 252.634099 252.634099 0 0 1-134.307643 69.780866 69.178835 69.178835 0 0 0-52.705077 75.691715 74.816034 74.816034 0 0 0 71.094388 66.00449zM1196.180866 219.809727a71.586959 71.586959 0 0 0 64.526777-71.149118 69.178835 69.178835 0 0 0-57.138215-71.149118 239.498878 239.498878 0 0 1-115.699412-54.730091l-11.87643-10.946018c-7.443292-7.443292-18.608231-14.120363-26.051523-2.955425a28.185997 28.185997 0 0 0 2.955425 24.464351 239.881988 239.881988 0 0 1 66.05922 129.819775 70.656547 70.656547 0 0 0 77.224158 56.645644zM865.994228 82.60139a270.85922 270.85922 0 0 1 121.336611-68.193694l17.404169-4.542597a66.22341 66.22341 0 0 0 51.172635-66.05922 71.915339 71.915339 0 0 0-61.571352-71.149118 69.726136 69.726136 0 0 0-77.169428 51.172635 258.8186 258.8186 0 0 1-71.149118 137.263068c-4.487867 4.487867-1.477712 14.120363-2.955425 21.563656l15.762266 1.258792a10.946018 10.946018 0 0 0 7.169642-1.313522zM943.492036 497.729129c-21.399466 179.076857-206.825013 319.40481-431.163655 319.40481-239.006307 0-433.51705-159.045644-433.51705-354.705719a331.609621 331.609621 0 0 1 154.886157-269.162587 437.840727 437.840727 0 0 1 47.286798-30.3752l-28.240726-104.862854c29.280599 12.806841 48.655051 26.598824 126.86435 66.934901 14.175094-3.666916 29.116408-6.02031 43.784073-8.537894 9.468306-1.696633 18.936611-3.393266 28.623837-4.542598a499.466809 499.466809 0 0 1 181.211331 10.398718 349.944201 349.944201 0 0 1 14.284554-77.443079 599.185035 599.185035 0 0 0-135.347515-15.816996 588.348477 588.348477 0 0 0-121.555532 13.408872l-176.121432-87.951256a38.858365 38.858365 0 0 0-42.1969 4.433137 39.405665 39.405665 0 0 0-13.627793 40.226617l31.524533 126.919081A411.022982 411.022982 0 0 0-0.10946 462.48295c0 239.444148 229.373811 433.51705 512.27365 433.51705 268.670016 0 488.630251-175.136291 510.084447-397.7783a203.431748 203.431748 0 0 1-78.920791-0.383111z"  horiz-adv-x="1260" />
      
      <glyph glyph-name="liulanjilu" unicode="&#58950;" d="M800-128h-576a192 192 0 0 0-192 192v640a192 192 0 0 0 192 192h768v-832a192 192 0 0 0-192-192z m-544 928a128 128 0 0 1-128-128v-576a128 128 0 0 1 128-128h512a128 128 0 0 1 128 128v704zM224 576m48 0l352 0q48 0 48-48l0 0q0-48-48-48l-352 0q-48 0-48 48l0 0q0 48 48 48ZM224 384m48 0l480 0q48 0 48-48l0 0q0-48-48-48l-480 0q-48 0-48 48l0 0q0 48 48 48ZM224 192m48 0l224 0q48 0 48-48l0 0q0-48-48-48l-224 0q-48 0-48 48l0 0q0 48 48 48Z"  horiz-adv-x="1024" />
      
      <glyph glyph-name="-chains-totop" unicode="&#58920;" d="M969.98200441-477.15852644999995a850.75404784 850.75404784 0 1 0 850.75404785 850.75405388 853.25313791 853.25313791 0 0 0-850.75404785-850.75405388zM544.44546367 714.0566635600001h850.75404773V799.13206839H544.44546367v-85.07540483z m467.91472614-161.64327268l280.74883708-280.74883708 59.55278207 59.55278222-382.83932154 382.83932754-382.83932145-382.83932754 59.55278209-59.55278222 280.74883706 280.74883708v-680.60323831h85.07540469v680.60323831z"  horiz-adv-x="1937" />
      
      <glyph glyph-name="-chains-done" unicode="&#58890;" d="M739.555556-71.11111100000005H284.444444a227.555556 227.555556 0 0 0-227.555555 227.555555V611.555556a227.555556 227.555556 0 0 0 227.555555 227.555555h455.111112a227.555556 227.555556 0 0 0 227.555555-227.555555v-455.111112a227.84 227.84 0 0 0-227.555555-227.555555zM303.388444 763.278222a170.666667 170.666667 0 0 1-170.666666-170.666666v-417.166223a170.666667 170.666667 0 0 1 170.666666-170.666666h417.166223a170.666667 170.666667 0 0 1 170.666666 170.666666V592.6115560000001a170.666667 170.666667 0 0 1-170.666666 170.666666zM208.611556 586.296889h455.111111v-75.832889h-455.111111zM208.611556 384h252.814222v-75.832889H208.611556z"  horiz-adv-x="1024" />
      
      <glyph glyph-name="-chains-already" unicode="&#58888;" d="M629.418667 417.678222a39.822222 39.822222 0 0 0 20.48-5.688889l104.049777-62.577777a39.822222 39.822222 0 0 0 0-68.266667l-104.049777-62.577778a39.822222 39.822222 0 0 0-60.416 34.133333v29.297778H456.647111a33.223111 33.223111 0 1 0 0 66.446222h132.892445v29.411556a39.822222 39.822222 0 0 0 39.822222 39.822222zM796.444444-71.11111100000005H379.278222a170.666667 170.666667 0 0 0-170.666666 170.666667V573.6106669999999a113.777778 113.777778 0 0 0 113.777777 113.777777H796.444444a170.666667 170.666667 0 0 0 170.666667-170.666666V99.55555600000002a170.666667 170.666667 0 0 0-170.666667-170.666667zM341.333333 611.555556a56.888889 56.888889 0 0 1-56.888889-56.888889v-436.167111a113.777778 113.777778 0 0 1 113.777778-113.777778h379.278222a113.777778 113.777778 0 0 1 113.777778 113.777778V497.720889a113.777778 113.777778 0 0 1-113.777778 113.777778zM208.611556 81.63555599999995A170.666667 170.666667 0 0 0 56.888889 251.27822200000003V725.333333a113.777778 113.777778 0 0 0 113.777778 113.777778h474.055111a170.666667 170.666667 0 0 0 169.642666-151.722667h-81.351111A113.777778 113.777778 0 0 1 625.777778 763.278222H189.667556a56.888889 56.888889 0 0 1-56.888889-56.888889V270.222222a113.777778 113.777778 0 0 1 75.889777-107.292444v-81.294222z"  horiz-adv-x="1024" />
      
      <glyph glyph-name="-chains-alert" unicode="&#58887;" d="M512 896A512 512 0 1 0 0 384 512 512 0 0 0 512 896z m0-950.8352A438.8352 438.8352 0 1 1 73.1648 384 438.8352 438.8352 0 0 1 512-54.835199999999986z m-5.4272 742.912a43.8784 43.8784 0 0 0 43.8784-43.8784v-334.5408a43.8784 43.8784 0 1 0-87.7568 0V644.2496a43.8784 43.8784 0 0 0 43.8784 43.8784zM506.1632 220.15999999999997a43.8784 43.8784 0 0 0 43.8784-43.8784v-44.1856a43.8784 43.8784 0 1 0-87.7568 0v44.1856a43.8784 43.8784 0 0 0 43.8784 43.8784z"  horiz-adv-x="1024" />
      
      <glyph glyph-name="-chains-being" unicode="&#58886;" d="M1014.670222 500.451556h-289.621333a9.386667 9.386667 0 0 1-9.386667-9.329778v-55.751111a9.329778 9.329778 0 0 1 9.386667-9.329778h289.621333a9.329778 9.329778 0 0 1 9.386667 9.329778v55.751111a9.386667 9.386667 0 0 1-9.386667 9.329778z m-146.147555-158.321778h-143.36a9.329778 9.329778 0 0 1-9.386667-9.329778v-55.751111a9.386667 9.386667 0 0 1 9.386667-9.329778h143.473777a9.386667 9.386667 0 0 1 9.386667 9.329778V332.79999999999995a9.329778 9.329778 0 0 1-9.386667 9.329778z m-392.533334 262.428444h-50.688a13.198222 13.198222 0 0 1-9.329777-3.811555 12.913778 12.913778 0 0 1-3.868445-9.216v-288.483556a12.856889 12.856889 0 0 1 5.688889-10.467555l175.104-126.350223a13.198222 13.198222 0 0 1 18.375111 2.787556l30.264889 40.846222a12.913778 12.913778 0 0 1-2.901333 18.147556L489.642667 334.620444V591.473778a12.856889 12.856889 0 0 1-3.868445 9.443555 13.141333 13.141333 0 0 1-9.557333 3.697778zM460.8-71.11111100000005A458.524444 458.524444 0 0 0 0 384a461.767111 461.767111 0 0 0 706.56 384.853333 459.662222 459.662222 0 0 0 166.968889-182.556444h-88.007111A384.853333 384.853333 0 0 1 76.8 384a384.853333 384.853333 0 0 1 708.664889-202.24h88.064A461.880889 461.880889 0 0 0 460.8-71.11111100000005z"  horiz-adv-x="1024" />
      
      <glyph glyph-name="-chains-share" unicode="&#58885;" d="M512.085335 895.886229A43.574468 43.574468 0 1 0 512.085335 808.90795 424.879507 424.879507 0 1 1 937.021727 383.97155699999996a43.574468 43.574468 0 1 0 86.921394 0 511.971557 511.971557 0 1 0-511.971558 511.971557z m263.55158-217.758569a42.778068 42.778068 0 0 0 60.810844 60.128215l74.918505-74.918505a57.7959 57.7959 0 0 0 0-81.858563l-74.918505-74.918505a42.778068 42.778068 0 0 0-60.469529 60.46953l12.628631 12.628631h-55.179156c-150.007666 0-200.920393-63.825787-200.920394-257.066607a42.778068 42.778068 0 0 0-85.328592 0c0 238.92006 87.148936 342.565857 286.419643 342.565857h55.179157l-13.140604 12.969947z"  horiz-adv-x="1024" />
      
      <glyph glyph-name="tuichu" unicode="&#58949;" d="M511.988802 895.884177a54.136049 54.136049 0 0 0 57.591541-57.079616v-342.669671a57.591541 57.591541 0 0 0-115.183083 0V838.804561a54.136049 54.136049 0 0 0 57.591542 57.079616zM511.924811-127.965445a510.325046 510.325046 0 0 0-511.924811 505.525751 496.119133 496.119133 0 0 0 194.531428 394.374076 50.488584 50.488584 0 0 0 71.669474-10.110515A47.545017 47.545017 0 0 0 255.962406 696.233501a415.938909 415.938909 0 0 1-153.577444-318.545214A409.539849 409.539849 0 1 1 767.887217 696.233501a53.880086 53.880086 0 0 0-10.238497 70.773605 55.543842 55.543842 0 0 0 71.669474 10.110515A506.229648 506.229648 0 0 0 511.924811-127.965445z"  horiz-adv-x="1024" />
      
      <glyph glyph-name="lishijilu1" unicode="&#59322;" d="M721.408-128a302.535111 302.535111 0 1 0 302.535111 302.592A302.876444 302.876444 0 0 0 721.408-128z m0 535.324444a232.732444 232.732444 0 1 1 232.732444-232.789333 233.244444 233.244444 0 0 1-232.732444 232.732445zM442.083556-34.872889H227.555556a227.555556 227.555556 0 0 0-227.555556 227.555556V668.444444a227.555556 227.555556 0 0 0 227.555556 227.555556h475.818666a227.555556 227.555556 0 0 0 227.555556-227.555556v-214.584888a349.127111 349.127111 0 0 1-69.802667 40.732444V655.530667a170.666667 170.666667 0 0 1-170.666667 170.666666h-449.991111a170.666667 170.666667 0 0 1-170.666666-170.666666v-449.877334a170.666667 170.666667 0 0 1 170.666666-170.666666h160.881778a349.184 349.184 0 0 1 40.675556-69.688889zM139.605333 663.267556h418.872889v-69.802667H139.605333zM139.605333 477.127111h232.732445V407.324444H139.605333zM698.140444 174.592h186.197334v-69.802667h-186.197334zM768 337.464889v-232.732445h-69.802667V337.464889z"  horiz-adv-x="1024" />
      
      <glyph glyph-name="pingjiashaitu" unicode="&#59323;" d="M1023.93152 895.99552a126.975444 126.975444 0 0 0 127.99944-125.887449v-661.245107a126.975444 126.975444 0 0 0-127.99944-125.951449H782.716576a128.959436 128.959436 0 0 1-92.991594-39.359828l-37.887834-39.359828a105.599538 105.599538 0 0 0-147.647354-4.031982l-4.031982 4.031982-37.823835 39.359828a128.959436 128.959436 0 0 1-92.991593 39.359828h-241.278944a127.103444 127.103444 0 0 0-127.99944 125.951449V770.108071a126.911445 126.911445 0 0 0 127.99944 125.887449h895.99608z m0-95.99958h-895.99608a31.039864 31.039864 0 0 1-31.99986-29.887869v-661.245107a31.103864 31.103864 0 0 1 31.99986-30.015869H369.278384a224.831016 224.831016 0 0 0 162.111291-68.799699l38.399832-39.615827a9.663958 9.663958 0 0 1 12.799944 0l37.887834 39.487828a225.023016 225.023016 0 0 0 162.111291 68.735699h241.342944a31.103864 31.103864 0 0 1 31.99986 30.015869V770.108071a31.039864 31.039864 0 0 1-31.99986 29.887869zM287.93474 511.9972a63.99972 63.99972 0 1 0-63.99972-63.99972A63.99972 63.99972 0 0 0 287.99874 512.0612z m287.99874 0a63.99972 63.99972 0 1 0-63.99972-63.99972A63.99972 63.99972 0 0 0 575.99748 512.0612z m287.99874 0a63.99972 63.99972 0 1 0-63.99972-63.99972A63.99972 63.99972 0 0 0 863.99622 512.0612z"  horiz-adv-x="1152" />
      
      <glyph glyph-name="xiaoxitongzhi" unicode="&#59324;" d="M407.257769 500.307759a30.832305 30.832305 0 0 0 34.928109-34.928109v-69.799332a34.928109 34.928109 0 1 0-69.799332 0V465.37965a30.832305 30.832305 0 0 0 34.871223 34.928109z m232.721326 0a30.832305 30.832305 0 0 0 34.928109-34.928109v-69.799332a34.928109 34.928109 0 1 0-69.799332 0V465.37965a30.832305 30.832305 0 0 0 34.871223 34.928109zM881.347118 29.404035A511.975539 511.975539 0 1 1 511.928324-128h372.945737a46.817319 46.817319 0 0 1 36.008946 76.625672m-106.035823-1.706585H511.98521a437.056452 437.056452 0 1 0 315.320046 134.30825 119.460959 119.460959 0 0 1-12.401185-134.422022z"  horiz-adv-x="1024" />
      
      <glyph glyph-name="quxiaodingdan-1" unicode="&#59325;" d="M739.555556-128a284.444444 284.444444 0 1 0 284.444444 284.444444 284.785778 284.785778 0 0 0-284.444444-284.444444z m0 512a227.555556 227.555556 0 1 1 227.555555-227.555556 227.84 227.84 0 0 1-227.555555 227.555556zM427.747556-14.222222H113.777778a113.777778 113.777778 0 0 0-113.777778 113.777778V782.222222a113.777778 113.777778 0 0 0 113.777778 113.777778h682.666666a113.777778 113.777778 0 0 0 113.777778-113.777778v-314.026666a347.363556 347.363556 0 0 1-85.333333 39.822222V753.777778a56.888889 56.888889 0 0 1-56.888889 56.888889h-625.777778a56.888889 56.888889 0 0 1-56.888889-56.888889v-625.777778a56.888889 56.888889 0 0 1 56.888889-56.888889h245.703111a347.420444 347.420444 0 0 1 39.822223-85.333333zM170.666667 725.333333h455.111111v-85.333333H170.666667zM170.666667 497.777778h284.444444v-85.333334H170.666667zM659.114667 277.105778l201.159111-201.159111-40.277334-40.220445-201.102222 201.159111zM860.216889 236.885333l-201.159111-201.159111-40.220445 40.277334 201.159111 201.102222z"  horiz-adv-x="1024" />
      
      <glyph glyph-name="zailaiyidan" unicode="&#59326;" d="M739.555556-128a284.444444 284.444444 0 1 0 284.444444 284.444444 284.785778 284.785778 0 0 0-284.444444-284.444444z m0 512a227.555556 227.555556 0 1 1 227.555555-227.555556 227.84 227.84 0 0 1-227.555555 227.555556zM427.747556-14.222222H113.777778a113.777778 113.777778 0 0 0-113.777778 113.777778V782.222222a113.777778 113.777778 0 0 0 113.777778 113.777778h682.666666a113.777778 113.777778 0 0 0 113.777778-113.777778v-314.026666a347.363556 347.363556 0 0 1-85.333333 39.822222V753.777778a56.888889 56.888889 0 0 1-56.888889 56.888889h-625.777778a56.888889 56.888889 0 0 1-56.888889-56.888889v-625.777778a56.888889 56.888889 0 0 1 56.888889-56.888889h245.703111a347.420444 347.420444 0 0 1 39.822223-85.333333zM170.666667 725.333333h455.111111v-85.333333H170.666667zM170.666667 497.777778h284.444444v-85.333334H170.666667zM597.333333 184.888889h284.444445v-56.888889h-284.444445zM768 298.666667v-284.444445h-56.888889v284.444445z"  horiz-adv-x="1024" />
      
      <glyph glyph-name="quxiaodingdan" unicode="&#59327;" d="M652.48173-59.917838a40.738595 40.738595 0 0 0-0.498162-56.347676 38.745946 38.745946 0 0 0-55.351352 0l-68.967784 70.517622a55.351351 55.351351 0 0 0 0 76.99373l68.912433 70.185513a38.745946 38.745946 0 0 0 55.351351 0 40.849297 40.849297 0 0 0 0-56.845837l-11.679135-11.955892h50.757189c138.04627 0 184.928865 60.111568 184.928865 241.885405a39.299459 39.299459 0 1 0 78.65427 0c0-224.781838-80.204108-322.255568-263.527783-322.255568h-50.75719zM401.297297-44.972973h-110.702702a221.405405 221.405405 0 0 0-221.405406 221.405405v498.162163a221.405405 221.405405 0 0 0 221.405406 221.405405h442.81081a221.405405 221.405405 0 0 0 221.405406-221.405405v-221.405406h-83.027027v193.72973a166.054054 166.054054 0 0 1-166.054054 166.054054h-387.45946a166.054054 166.054054 0 0 1-166.054054-166.054054v-442.810811a166.054054 166.054054 0 0 1 166.054054-166.054054h83.027027v-83.027027zM512.332108 596.549189l-68.358919 65.646703a42.620541 42.620541 0 0 1-58.672432 0 38.745946 38.745946 0 0 1 0-56.347676l77.491892-74.170811h-133.009298a38.413838 38.413838 0 0 1-39.188756-37.638919v-4.428108a38.413838 38.413838 0 0 1 39.188756-37.638919h140.703135v-70.739027h-103.783783a38.413838 38.413838 0 0 1-39.188757-37.638918v-4.428109a38.413838 38.413838 0 0 1 39.188757-37.638919h103.783783v-92.99027a41.568865 41.568865 0 0 1 83.027028 0v92.824216h103.783783a38.413838 38.413838 0 0 1 39.188757 37.638919v4.428108a38.413838 38.413838 0 0 1-39.188757 37.638919h-103.783783v70.905081h140.703135a38.413838 38.413838 0 0 1 39.188756 37.638919v4.428108a38.413838 38.413838 0 0 1-39.188756 37.638919h-131.957622l77.990054 74.835027a38.745946 38.745946 0 0 1 0 56.347676 42.620541 42.620541 0 0 1-58.672432 0l-69.18919-66.421622zM404.064865-3.459459m-41.513514 0a41.513514 41.513514 0 1 1 83.027027 0 41.513514 41.513514 0 1 1-83.027027 0ZM913.297297 450.421622m-41.513513 0a41.513514 41.513514 0 1 1 83.027027 0 41.513514 41.513514 0 1 1-83.027027 0Z"  horiz-adv-x="1024" />
      
      <glyph glyph-name="xiugaidingdanxinxi" unicode="&#59328;" d="M985.713778 737.621333c3.072 3.072 6.599111 6.485333 10.695111 10.353778s8.704 8.476444 13.937778 13.653333a51.2 51.2 0 0 1 10.353777 16.270223 48.412444 48.412444 0 0 1 3.299556 17.066666 81.294222 81.294222 0 0 1-1.649778 16.270223 64.625778 64.625778 0 0 1-4.209778 13.653333 144.213333 144.213333 0 0 1-25.6 37.376 118.840889 118.840889 0 0 1-30.037333 24.974222 101.148444 101.148444 0 0 1-15.246222 5.688889 71.509333 71.509333 0 0 1-18.090667 2.958222 60.359111 60.359111 0 0 1-19.114666-2.616889 56.888889 56.888889 0 0 1-18.773334-10.012444c-4.721778-3.868444-10.695111-9.216-17.863111-15.928889s-13.255111-12.515556-18.432-17.066667l121.002667-121.514666a104.846222 104.846222 0 0 1 9.728 8.874666zM532.195556 526.108444l-18.090667-18.488888a105.870222 105.870222 0 0 1-13.937778-16.611556 100.238222 100.238222 0 0 1-8.704-16.611556 158.890667 158.890667 0 0 1-8.419555-21.447111c-3.413333-10.353778-7.054222-21.788444-10.695112-34.133333s-7.054222-23.779556-10.353777-35.726222a201.784889 201.784889 0 0 1-6.087111-26.282667 30.151111 30.151111 0 0 1 3.299555-24.064c3.868444-4.721778 11.377778-6.485333 23.324445-5.176889a257.251556 257.251556 0 0 1 25.6 5.688889 798.208 798.208 0 0 1 72.874666 23.324445c11.776 4.266667 20.423111 8.021333 26.510222 11.093333a78.620444 78.620444 0 0 1 17.464889 10.353778c5.688889 4.380444 10.581333 8.476444 14.904889 12.344889q2.616889 1.934222 16.213334 15.530666c9.045333 9.045333 20.536889 20.764444 34.133333 34.759111s29.354667 29.582222 46.592 46.421334l51.768889 52.679111 139.150222 139.776-121.344 122.197333-238.933333-239.786667q-21.333333-21.162667-35.271111-35.84zM967.111111 387.925333V-14.222222a113.777778 113.777778 0 0 0-113.777778-113.777778H113.777778a113.777778 113.777778 0 0 0-113.777778 113.777778V725.333333a113.777778 113.777778 0 0 0 113.777778 113.777778h423.537778a339.285333 339.285333 0 0 1-22.755556-85.333333H142.222222a56.888889 56.888889 0 0 1-56.888889-56.888889v-682.666667a56.888889 56.888889 0 0 1 56.888889-56.888889h682.666667a56.888889 56.888889 0 0 1 56.888889 56.888889V369.664a339.968 339.968 0 0 1 85.333333 18.261333z"  horiz-adv-x="1024" />
      
      <glyph glyph-name="lijizhifu" unicode="&#59329;" d="M995.092299 143.31136a104.683825 104.683825 0 0 1-51.176231 80.232958 862.7744 862.7744 0 0 1-221.76367 82.962358 493.793771 493.793771 0 0 1-216.077422-19.390106 1337.234929 1337.234929 0 0 0-142.156198-24.905766 62.548727 62.548727 0 0 1-39.803736-22.119504 54.986018 54.986018 0 0 1-11.372496-41.50961 101.670113 101.670113 0 0 1 68.234975-74.660436 683.259553 683.259553 0 0 1 184.632471 0 424.705859 424.705859 0 0 0-93.709366-33.207688 262.81838 262.81838 0 0 0-130.783703 8.301922 980.593458 980.593458 0 0 1-207.3206 85.748619c-73.921223 16.603844-96.666215-27.635165-102.352463-44.239009a55.72523 55.72523 0 0 1 22.744992-66.415376c42.589997-27.635165 144.828735-91.264279 181.959934-110.654385 11.372496-5.686248 22.744992-13.817583 36.90375-22.119504a353.514035 353.514035 0 0 1 153.528694-66.415376 410.433376 410.433376 0 0 1 56.862479-2.786262 628.557848 628.557848 0 0 1 218.693096 44.239009 365.057118 365.057118 0 0 0 62.548728 16.603844c17.058744-2.786261 42.589997-8.301922 68.234975-13.817582l5.686248-2.786262a85.976069 85.976069 0 0 1 93.936816 33.605726 248.204723 248.204723 0 0 1 62.548727 193.616742z m-105.081862-168.767839a36.050812 36.050812 0 0 0-36.903749-11.088184l-5.686248 2.786262c-28.43124 5.686248-53.962493 13.817583-73.921223 16.603844a215.167622 215.167622 0 0 1-90.979967-19.390106 506.076067 506.076067 0 0 0-250.19491-35.937087 282.77711 282.77711 0 0 0-127.826853 55.327193 340.208214 340.208214 0 0 1-42.589997 24.905766c-36.903749 19.390105-136.469951 82.962357-178.946223 110.654385 0 2.786261 2.843124 8.301922 17.058744 8.301922a36.903749 36.903749 0 0 0 17.058743-2.786262 869.995935 869.995935 0 0 0 193.332431-80.232958c2.843124-2.786261 8.529372-2.786261 11.372495-5.686248a359.882632 359.882632 0 0 1 161.887479-8.301922 347.884649 347.884649 0 0 1 133.513102 60.842853 59.705603 59.705603 0 0 1 19.901868 66.415376 40.486085 40.486085 0 0 1-42.589997 19.390105 1053.832331 1053.832331 0 0 0-204.704926-8.301922 34.8567 34.8567 0 0 0-25.588116 33.207688 1500.714557 1500.714557 0 0 1 147.842447 27.635165 439.774416 439.774416 0 0 0 196.004966 16.603844 729.943648 729.943648 0 0 0 204.704926-74.660435 48.16252 48.16252 0 0 0 22.744992-33.207688 230.747942 230.747942 0 0 0-45.489984-163.195316zM128.792425 264.997066a36.903749 36.903749 0 0 1 17.058744 2.786261 32.752788 32.752788 0 0 1 14.21562 47.025271 353.286585 353.286585 0 0 0-39.803736 160.465917 363.919868 363.919868 0 0 0 727.100525 0 315.700486 315.700486 0 0 0-11.372496-88.534881 32.695926 32.695926 0 0 1 25.588116-41.50961 33.71945 33.71945 0 0 1 42.589997 24.905766A431.358769 431.358769 0 1 1 52.08494 475.274515a449.213587 449.213587 0 0 1 45.489984-190.887344 34.970425 34.970425 0 0 1 31.217501-19.390105zM597.396118 475.501965h-85.293719v55.327192h85.293719a27.692027 27.692027 0 1 1 0 55.327193h-90.979967v2.501949L435.394914 707.614606a32.866513 32.866513 0 0 1-39.803735 11.088183 32.468476 32.468476 0 0 1-11.372496-38.723348l56.862479-94.050541H370.059925a27.692027 27.692027 0 1 1 0-55.327193h85.29372v-55.327192H370.059925a27.692027 27.692027 0 1 1 0-55.327193h85.29372v-55.327192a28.43124 28.43124 0 0 1 56.862479 0v55.327192H597.509843a27.692027 27.692027 0 1 1 0 55.327193zM537.80424 622.150299a29.170452 29.170452 0 0 1 39.803735 11.088184l28.43124 47.02527a27.635165 27.635165 0 0 1-11.372496 38.723349 29.170452 29.170452 0 0 1-39.803735-11.088184l-28.43124-47.02527a27.635165 27.635165 0 0 1 11.372496-38.723349z"  horiz-adv-x="1024" />
      
      <glyph glyph-name="lianxikefu" unicode="&#59330;" d="M904.857031 604.216889a410.453333 410.453333 0 0 1-385.137778 291.783111 410.510222 410.510222 0 0 1-384.568889-290.133333 149.162667 149.162667 0 0 1-135.111111-151.893334v-223.800889a149.617778 149.617778 0 0 1 145.237334-152.917333h77.653333a40.391111 40.391111 0 0 1 40.448 39.822222v449.422223a39.822222 39.822222 0 0 1-40.448 39.822222h-2.104889a317.098667 317.098667 0 0 0 596.309333 0h-15.416888a40.391111 40.391111 0 0 1-40.448-39.822222v-449.422223a39.253333 39.253333 0 0 1 10.126222-26.510222 110.08 110.08 0 0 1 57.457778-13.027555h50.005333a149.276444 149.276444 0 0 1 145.237333 152.917333v223.857778a147.911111 147.911111 0 0 1-119.239111 149.902222z m-721.806222-166.456889v-280.519111h-37.262222a69.006222 69.006222 0 0 0-64.341334 72.817778v223.800889a100.408889 100.408889 0 0 0 2.104889 18.204444c0.512 1.536 0.512 2.616889 1.080889 4.152889a69.745778 69.745778 0 0 0 5.688889 14.563555c0 0.512 0.512 1.024 0.512 1.536a63.601778 63.601778 0 0 0 24.462222 25.486223 61.838222 61.838222 0 0 0 13.312 6.257777c0.512 0 1.080889 0.512 1.592889 0.512a73.955556 73.955556 0 0 0 15.416889 1.536h37.262222z m761.173333-207.701333a69.006222 69.006222 0 0 0-64.341333-72.817778h-37.262222v368.924444h37.376a61.098667 61.098667 0 0 0 45.226666-21.333333 80.327111 80.327111 0 0 0 19.171556-51.484444v-223.288889zM512.039253-70.087111a455.964444 455.964444 0 0 1 337.123556 226.531555h64.568889a513.422222 513.422222 0 0 0-401.692445-284.444444zM512.039253-99.555556m-28.444444 0a28.444444 28.444444 0 1 1 56.888889 0 28.444444 28.444444 0 1 1-56.888889 0Z"  horiz-adv-x="1024" />
      
      <glyph glyph-name="tuiguangdaren" unicode="&#59320;" d="M227.555556 270.222222a227.555556 227.555556 0 0 0 0 455.111111v-85.333333a142.222222 142.222222 0 0 1 0-284.444444v-85.333334zM796.444444 270.222222a227.555556 227.555556 0 0 1 0 455.111111v-85.333333a142.222222 142.222222 0 0 0 0-284.444444v-85.333334zM512 42.666667a341.731556 341.731556 0 0 0-341.333333 341.333333v341.333333a170.666667 170.666667 0 0 0 170.666666 170.666667h341.333334a170.666667 170.666667 0 0 0 170.666666-170.666667v-341.333333a341.731556 341.731556 0 0 0-341.333333-341.333333z m-153.6 768a102.4 102.4 0 0 1-102.4-102.4v-324.266667a256 256 0 0 1 512 0v324.266667a102.4 102.4 0 0 1-102.4 102.4zM227.555556-42.666667m42.666666 0l483.555556 0q42.666667 0 42.666666-42.666666l0 0q0-42.666667-42.666666-42.666667l-483.555556 0q-42.666667 0-42.666666 42.666667l0 0q0 42.666667 42.666666 42.666666ZM554.666667 99.555556v-227.555556h-85.333334v227.555556z"  horiz-adv-x="1024" />
      
      <glyph glyph-name="tuiguangdashi" unicode="&#59321;" d="M841.386667 129.649778A356.807111 356.807111 0 0 1 512 327.111111a356.864 356.864 0 0 1-329.386667-197.461333l-11.946666-26.510222L512-71.111111l341.333333 174.250667zM512-42.666667l-256 139.776 0.853333 1.536A293.546667 293.546667 0 0 0 512 241.777778h3.584a293.376 293.376 0 0 0 251.562667-143.132445l0.853333-1.536zM512 668.444444a170.666667 170.666667 0 0 1-170.666667-170.666666 170.666667 170.666667 0 0 1 170.666667-170.666667 170.666667 170.666667 0 0 1 170.666667 170.666667 170.666667 170.666667 0 0 1-170.666667 170.666666z m0-273.066666A102.4 102.4 0 0 0 409.6 497.777778 102.4 102.4 0 0 0 512 600.177778 102.4 102.4 0 0 0 614.4 497.777778 102.4 102.4 0 0 0 512 395.377778zM946.232889 655.075556L532.878222 890.481778a42.382222 42.382222 0 0 1-41.756444 0L77.767111 655.075556A41.073778 41.073778 0 0 1 56.888889 619.406222v-470.812444a41.073778 41.073778 0 0 1 20.878222-35.669334l413.354667-235.406222a42.382222 42.382222 0 0 1 41.756444 0l413.354667 235.406222a41.073778 41.073778 0 0 1 20.878222 35.669334V619.406222a41.073778 41.073778 0 0 1-20.878222 35.669334zM881.777778 170.666667L512-42.666667l-369.777778 213.333334v426.666666L512 810.666667l369.777778-213.333334z"  horiz-adv-x="1024" />
      
      <glyph glyph-name="close" unicode="&#58948;" d="M925.468404 73.705931 622.19831 383.99386l303.311027 310.331931c34.682917 27.842115 38.299281 75.80243 8.121981 107.216907-30.135344 31.369452-82.733283 34.259268-117.408013 6.463202L512.000512 496.74276 207.776695 808.006923c-34.675754 27.796066-87.272669 24.90625-117.408013-6.463202-30.178323-31.414477-26.560936-79.375815 8.121981-107.216907l303.311027-310.331931L98.531596 73.705931c-34.724873-27.820626-38.341237-75.846432-8.117888-107.195418 30.135344-31.43699 82.72919-34.326806 117.408013-6.485715l304.178791 311.219137 304.177767-311.219137c34.678824-27.841092 87.271646-24.951275 117.408013 6.485715C963.808618-2.140501 960.146205 45.886329 925.468404 73.705931z"  horiz-adv-x="1024" />
      
      <glyph glyph-name="xiazai" unicode="&#58919;" d="M982.85372369 300.9081664c-20.77295839 0-34.62159733-13.84863893-34.62159733-34.62159733v-117.71343093c0-55.39455572-27.69727787-103.86479199-103.86479198-103.86479197H179.63266562c-83.0918336-6.92431946-103.86479199 48.47023626-103.86479198 103.86479197V266.28656907000004c0 20.77295839-13.84863893 34.62159733-34.62159733 34.62159733s-27.69727787-13.84863893-27.69727787-34.62159733V107.02722134999999c0-76.16751413 62.31887519-138.48638932 138.48638932-138.48638933h727.05354395c76.16751413 0 138.48638932 62.31887519 138.48638932 138.48638933V266.28656907000004c-6.92431946 20.77295839-20.77295839 34.62159733-34.62159734 34.62159733zM518.92431946 162.42177707999997M546.62159733 169.34609655999998l186.95662559 180.03230611c13.84863893 13.84863893 13.84863893 34.62159733 0 48.47023626s-34.62159733 13.84863893-48.47023627 0L553.54591679 280.13520801000004v484.70236263c0 20.77295839-13.84863893 34.62159733-34.62159733 34.62159734s-34.62159733-13.84863893-34.62159733-34.62159734v-484.70236263L352.74065228 397.84863893c-13.84863893 13.84863893-41.54591679 13.84863893-48.47023626 0-13.84863893-13.84863893-13.84863893-34.62159733 0-48.47023626l186.95662559-180.03230611s27.69727787-27.69727787 55.39455572 0z"  horiz-adv-x="1024" />
      
      <glyph glyph-name="daren" unicode="&#58900;" d="M347.118933 558.592c0-88.200533 71.253333-159.744 159.214934-159.744 87.944533 0 159.214933 71.543467 159.214933 159.744a25.6 25.6 0 1 1-51.2 0c0-59.972267-48.384-108.544-108.032-108.544-59.613867 0-107.997867 48.571733-107.997867 108.544a25.6 25.6 0 0 1-51.2 0zM505.96545594 237.88041436000003c182.74490863 0 330.82753883 148.68244939 330.82753883 332.0817062C836.81117041 753.30684728 688.7103635 902.02565006 505.96545594 902.02565006S175.11974041 753.34320067 175.11974041 569.94394386c0-183.36290343 148.1008069-332.06352951 330.84571553-332.0635295z m0 54.5290158c-152.59036288 0-276.31669972 124.23527468-276.31669973 277.5526904 0 153.29924009 123.72633684 277.53451372 276.31669973 277.5345137 152.5721862 0 276.29852304-124.23527468 276.29852303-277.5526904 0-153.29924009-123.72633684-277.53451372-276.29852303-277.5345137zM311.09692912-73.08038710000005c-23.82917992 0-38.71560122 17.03122962-35.60744732 41.18758363l37.53413955 255.35938096L265.45614289 274.94196839999995l-44.04126807-299.87323454c-7.27053579-56.67382411 32.86281983-102.67813674 89.6820543-102.67813675h326.21074917l-50.36663389 54.52901579H311.09692912zM706.7958211 75.85653174000004l-64.12612256 62.4902521 88.60965066 12.88702442 39.62441779 80.28488687 39.6244178-80.28488687 88.60965068-12.88702442-64.1261226-62.4902521 15.14089077-88.24612425-79.24883665 41.66016806-79.24883663-41.66016806 15.14089074 88.24612425z m134.72302136-145.3198271c37.77043126-19.84856175 72.79623609 5.59831193 65.5802293 47.6583598L893.61222923 56.82590521999998l57.12823186 55.67412513c30.55442554 29.79101932 17.15846329 70.96042625-25.04699494 77.08585164l-78.95801487 11.4874467-35.29844885 71.52389203c-18.90339179 38.27936909-62.163078 38.26119239-81.06647085 0l-35.29844886-71.52389203-78.93983925-11.4874467c-42.24181056-6.12542646-55.61959612-47.31300903-25.06517057-77.08585164L648.19530477 56.82590521999998l-13.48684254-78.63084078c-7.21600679-42.06004787 27.80979805-67.50692155 65.58022932-47.6583598l70.61507544 37.13425976 70.61507547-37.13425976z"  horiz-adv-x="1041" />
      
      <glyph glyph-name="qizhi" unicode="&#58901;" d="M921.88 826.576a33.456 33.456 0 0 1-35.072-3.512c-36.048-27.816-96.168-43.752-164.992-43.752-67.664 0-120.696 14.328-166.952 45.104C499 861.6 432.64 896 326.128 896c-106.096 0-193.136-37.784-232.32-75.224a33.392 33.392 0 0 1-10.296-24.088v-891.368a33.296 33.296 0 0 1 33.312-33.312 33.304 33.304 0 0 1 33.312 33.312v332.72c33.168 24.664 97.72 48.408 175.992 48.408 84 0 137.44-24.136 191.832-60.408 56.88-37.864 123.568-56.28 203.856-56.28 84.384 0 157.448 20.472 205.656 57.616a33.288 33.288 0 0 1 13.008 26.384V796.6800000000001a33.288 33.288 0 0 1-18.6 29.896z m-48.016-555.328c-36.696-22.28-90.96-34.872-152.048-34.872-67.664 0-120.696 14.344-166.88 45.088-55.808 37.184-122.144 71.6-228.808 71.6-69.552 0-130.92-16.264-175.992-37.992V781.2c33.208 24.56 97.912 48.176 175.992 48.176 83.864 0 137.344-24.16 191.832-60.424 56.88-37.848 123.568-56.264 203.856-56.264 57.312 0 109.432 9.432 152.048 27.112v-468.552z"  horiz-adv-x="1024" />
      
      <glyph glyph-name="vip" unicode="&#58891;" d="M134 888h1764c75.6 0 126-50.4 126-126v-756c0-75.6-50.4-126-126-126H134C58.4-120 8-69.60000000000002 8 6V762C8 825 58.4 888 134 888zM473.6 64c-25.6 0-51.2 25.6-64 76.8L192 716.8h166.4L512 320l243.2 396.8h179.2l-371.2-576c-38.4-64-64-76.8-89.6-76.8z m409.6 12.8L972.8 704h153.6l-89.6-627.2zM1856 473.6c-12.8-64-38.4-128-102.4-179.2-51.2-38.4-115.2-64-179.2-64h-268.8L1280 76.79999999999995h-153.6l51.2 320h435.2c25.6 0 38.4 12.8 51.2 25.6 12.8 12.8 25.6 38.4 25.6 51.2 0 25.6 0 38.4-12.8 51.2-12.8 12.8-38.4 25.6-51.2 25.6h-435.2l128 166.4h320c64 0 128-25.6 166.4-64 51.2-64 64-128 51.2-179.2z"  horiz-adv-x="2048" />
      
      <glyph glyph-name="dingwei" unicode="&#58977;" d="M841.2 404.5c0 192.1-138.7 331.5-329.7 331.5-181.8 0-329.7-148.7-329.7-331.5 0-135 182.3-316.4 280.3-439.2l7.3-9c10.3-12.9 25.7-20.3 42.2-20.3 16.5 0 31.8 7.4 42.2 20.3l7.3 9c97.8 122.8 280.1 304.3 280.1 439.2z m-331.4-96C442.6 308.5 388 363.4 388 431s54.6 122.5 121.8 122.5c67.2 0 121.8-54.9 121.8-122.5S577 308.5 509.8 308.5z"  horiz-adv-x="1024" />
      
      <glyph glyph-name="xialacopy" unicode="&#58947;" d="M1431.192137 677.010286L805.528137-90.404571A94.208 94.208 0 0 0 731.507566-128a94.208 94.208 0 0 0-73.874286 37.595429L31.822994 677.010286A141.897143 141.897143 0 0 0 7.685851 812.470857C23.338423 858.989714 61.518994 891.465143 105.69728 896h1251.035429c44.470857-4.242286 82.797714-36.571429 98.596571-83.382857a141.897143 141.897143 0 0 0-24.137143-135.606857z"  horiz-adv-x="1463" />
      
      <glyph glyph-name="lishijilu" unicode="&#58884;" d="M721.408-128a302.535111 302.535111 0 1 0 302.535111 302.592A302.876444 302.876444 0 0 0 721.408-128z m0 535.324444a232.732444 232.732444 0 1 1 232.732444-232.789333 233.244444 233.244444 0 0 1-232.732444 232.732445zM442.083556-34.872889H227.555556a227.555556 227.555556 0 0 0-227.555556 227.555556V668.444444a227.555556 227.555556 0 0 0 227.555556 227.555556h475.818666a227.555556 227.555556 0 0 0 227.555556-227.555556v-214.584888a349.127111 349.127111 0 0 1-69.802667 40.732444V655.530667a170.666667 170.666667 0 0 1-170.666667 170.666666h-449.991111a170.666667 170.666667 0 0 1-170.666666-170.666666v-449.877334a170.666667 170.666667 0 0 1 170.666666-170.666666h160.881778a349.184 349.184 0 0 1 40.675556-69.688889zM139.605333 663.267556h418.872889v-69.802667H139.605333zM139.605333 477.127111h232.732445V407.324444H139.605333zM698.140444 174.592h186.197334v-69.802667h-186.197334zM768 337.464889v-232.732445h-69.802667V337.464889z"  horiz-adv-x="1024" />
      
      <glyph glyph-name="tingyong" unicode="&#59302;" d="M512-128a512.597333 512.597333 0 0 0-512 512 512 512 0 1 0 1024 0 512.597333 512.597333 0 0 0-512-512zM512 820.138667A430.848 430.848 0 0 1 77.226667 384a435.2 435.2 0 1 1 869.632 0A430.848 430.848 0 0 1 512 820.138667zM180.138667 776.362667l724.053333-724.053334-60.330667-60.330666L119.808 715.946667z"  horiz-adv-x="1024" />
      
      <glyph glyph-name="xinshixin" unicode="&#58883;" d="M769.536 768c-96.768 0-181.248-54.784-225.28-135.68C500.736 713.216 415.232 768 317.952 768c-140.8 0-254.976-114.688-254.976-256 0-67.072 25.6-128 67.584-174.08l391.168-393.216c6.656-5.632 14.336-8.704 22.016-8.704s15.36 3.072 22.016 9.216l391.168 393.216C998.4 384 1024 445.44 1024 512.512c0 140.8-113.664 255.488-254.464 255.488z"  horiz-adv-x="1024" />
      
      <glyph glyph-name="fenxiang2" unicode="&#58881;" d="M512.113778 896a43.52 43.52 0 0 0 0-87.096889A424.96 424.96 0 1 1 937.016889 384a43.576889 43.576889 0 1 0 87.096889 0 512 512 0 1 0-512 512z m263.566222-217.713778a42.780444 42.780444 0 0 0 60.700444 60.131556l74.979556-74.979556a57.799111 57.799111 0 0 0 0-81.806222l-74.979556-74.979556a42.780444 42.780444 0 0 0-60.472888 60.472889l12.686222 12.686223h-55.182222c-150.072889 0-201.045333-63.886222-201.045334-257.137778a42.723556 42.723556 0 1 0-85.333333 0c0 238.933333 87.210667 342.641778 286.492444 342.641778h55.182223z"  horiz-adv-x="1024" />
      
      <glyph glyph-name="shoucang-chanpinxiangqing" unicode="&#58882;" d="M792.468874 896a302.001231 302.001231 0 0 1-241.270154-126.030769A301.056 301.056 0 0 1 309.928566 896 325.553231 325.553231 0 0 1 0.207951 557.292308a449.457231 449.457231 0 0 1 89.796923-252.534154c116.184615-182.823385 408.969846-409.6 421.572923-419.052308a63.566769 63.566769 0 0 1 78.769231 0c12.603077 9.452308 304.679385 236.859077 421.572923 419.052308a449.457231 449.457231 0 0 1 89.796923 252.534154A325.553231 325.553231 0 0 1 791.996258 896z m140.130461-589.272615a1951.586462 1951.586462 0 0 0-346.112-330.83077 58.840615 58.840615 0 0 0-35.209846-12.603077 53.799385 53.799385 0 0 0-35.209846 12.603077 2062.178462 2062.178462 0 0 0-346.348308 337.132308A410.624 410.624 0 0 0 76.771643 539.175385c0 167.069538 92.947692 284.593231 245.602462 284.59323a339.574154 339.574154 0 0 0 228.430769-151.394461 340.913231 340.913231 0 0 0 228.430769 151.394461c153.284923 0 252.534154-117.444923 252.534154-284.59323a428.898462 428.898462 0 0 0-99.879385-232.448z"  horiz-adv-x="1102" />
      
      <glyph glyph-name="tangshi-daodianziqu" unicode="&#59245;" d="M236.581284 895.317902a219.37985 219.37985 0 0 0 169.373522-83.215987 309.246295 309.246295 0 0 0 0-383.680266 243.764863 243.764863 0 0 0-57.55204-50.81632l45.657952-345.31224v-2.557868a157.735221 157.735221 0 0 0-315.470441 0v2.557868l45.657951 345.31224a243.722231 243.722231 0 0 0-57.381515 50.560533 309.246295 309.246295 0 0 0 0 383.680266A219.337219 219.337219 0 0 0 236.581284 895.317902z m0-480.069276c91.870108 0 165.835137 92.253789 165.835138 204.927894s-74.135554 205.055787-165.835138 205.055786-165.835137-92.253789-165.835137-204.927893 73.751873-205.055787 165.835137-205.055787z m86.924896-386.579184L280.15031 357.568693l-8.099917-1.449459a199.94005 199.94005 0 0 0-70.938218 0l-8.142548 1.49209-43.313239-328.899251a87.010158 87.010158 0 0 1 173.935054-1.236303zM984.800435 895.019484a38.751707 38.751707 0 0 0 38.794338-38.709076v-276.079267a235.622315 235.622315 0 0 0-122.692423-206.547877l45.103747-341.049126v-2.557868a157.735221 157.735221 0 0 0-315.470442 0v2.557868l45.018485 340.537552a235.537052 235.537052 0 0 0-123.843464 207.187344V856.267777a38.751707 38.751707 0 0 0 38.794338 38.709076 33.422814 33.422814 0 0 0 33.465446-37.387511v-276.079267a164.982515 164.982515 0 1 1 329.922398-1.406828V856.225146c0 21.31557 9.293589 38.794338 30.694421 38.794338z m-109.519401-866.307411l-43.270607 328.259784-8.014655-1.278934a229.270275 229.270275 0 0 0-71.449792 0l-7.972023 1.236303-43.185346-327.876104a87.010158 87.010158 0 0 1 173.935054-1.236303v1.236303zM727.180451 540.626811a37.558035 37.558035 0 0 1 35.46911 39.348543V856.651457a35.682265 35.682265 0 1 1-70.938219 0v-276.676103a37.558035 37.558035 0 0 1 35.469109-39.348543z m127.893423 0a37.558035 37.558035 0 0 1 35.469109 39.348543V856.651457a35.639634 35.639634 0 1 1-70.938218 0v-276.676103a37.558035 37.558035 0 0 1 35.682264-39.348543z"  horiz-adv-x="1024" />
      
      <glyph glyph-name="xingxing" unicode="&#58889;" d="M514.859 896c-8.918 0-26.797-7.148-50.095-53.127-56.026-99.908-144.524-262.968-144.524-262.968s-161.805-31.386-266.177-51.097c-51.204-8.417-67.93-53.972-41.945-86.034 73.436-88.277 203.367-234.037 203.367-234.037S194.278 48.68 182.33-60.576c-3.883-41.96 18.263-66.028 49.156-66.028 10.07 0 21.079 2.58 32.43 7.91 87.601 43.398 220.86 109.764 251.028 124.737 29.656-15.142 161.592-82.566 248.213-126.09 11.222-5.373 22.146-7.953 32.088-7.953 30.552 0 52.442 24.025 48.559 66.07-11.777 109.426-32.771 269.736-32.771 269.736s128.437 145.887 201.02 234.29c25.687 32.147 9.173 77.745-41.433 86.205-103.177 19.753-263.148 51.18-263.148 51.18S619.998 742.754 564.612 842.79c-19.585 36.926-34.562 48.77-44.035 52.027C519.68 895.28 517.76 896 514.859 896z"  horiz-adv-x="1024" />
      
      <glyph glyph-name="yilingqu" unicode="&#59269;" d="M412.291657 98.333257l-16.237714 22.440229-13.136457-23.581257-26.945829-7.343543 19.602286-19.8656-0.380343-27.062857 25.278171 11.351771 26.682515-9.274514-4.008229 26.799543 16.881372 21.269942z m160.914286-82.388114l-23.727543 14.189714-2.925714-26.8288-21.796572-17.554286 25.775543-10.4448 10.181486-25.014857 18.812343 20.48 28.116114 1.930972-14.189714 23.083885 7.226514 26.331429z m175.338057-55.296l17.408-20.743314 11.702857 25.278171 26.331429 10.4448-20.626286 17.554286-1.170286 27.209143-24.3712-14.306743-26.945828 6.319543 5.5296-26.331429-15.477029-23.405714z m-483.328 266.474057l16.618057-22.820571 11.995429 24.488228 25.921828 7.9872-19.8656 19.982629-0.643657 27.8528-24.224914-11.995429-26.331429 9.157486 4.885943-27.589486-15.594057-22.030628zM534.615771-84.494629a485.434514 485.434514 0 0 0-359.862857 468.611658l-26.682514 15.477028a512.497371 512.497371 0 0 1 781.633829-450.9696l-26.682515 15.477029a483.620571 483.620571 0 0 0-368.405943-48.596115zM579.9936 84.640914a310.125714 310.125714 0 0 0-208.340114 185.782857l-35.459657 20.48a337.1008 337.1008 0 0 1 405.182171-233.852342l-35.313371 20.48a310.6816 310.6816 0 0 0-126.069029 7.109485z m14.189714 716.8l-17.554285 20.743315-11.702858-25.278172-26.331428-10.4448 20.626286-17.788343 1.170285-27.209143 24.634515 14.306743 27.062857-6.319543-5.5296 26.624 15.594057 23.405715z m699.245715-533.972114L242.629486 873.8816a53.920914 53.920914 0 0 1-73.610972-19.719314l-161.792-279.9616a53.920914 53.920914 0 0 1 19.719315-73.610972l1050.8288-606.442057a53.920914 53.920914 0 0 1 73.610971 19.719314l161.674971 280.020115a51.4048 51.4048 0 0 1 5.412572 13.282743v27.326171a53.189486 53.189486 0 0 1-25.014857 33.002057z m-10.4448-71.797029l-148.245943-256.672914a40.462629 40.462629 0 0 0-55.178972-14.833371L52.077714 517.178514a40.462629 40.462629 0 0 0-14.833371 55.178972L185.490286 829.0304a40.462629 40.462629 0 0 0 55.178971 14.833371l1027.4816-593.042285a40.199314 40.199314 0 0 0 14.833372-55.178972zM785.759086 852.494629a485.434514 485.434514 0 0 0 359.862857-468.611658l26.8288-15.477028A512.497371 512.497371 0 0 1 390.816914 819.375543l26.565486-15.477029a483.210971 483.210971 0 0 0 368.376686 48.596115zM740.381257 683.388343a310.125714 310.125714 0 0 0 208.340114-185.782857l35.459658-20.48A337.1008 337.1008 0 0 1 578.998857 710.977829l35.313372-20.48a310.6816 310.6816 0 0 0 126.069028-7.109486z m42.159543 60.064914l23.990857-14.306743 2.925714 27.062857 21.9136 17.408-26.038857 10.561829-10.327771 25.014857-18.958629-20.48-28.350171-2.048 14.306743-23.200914-7.080229-26.185143z m196.022857-67.291428l0.380343 27.062857-25.3952-11.351772-26.945829 9.4208 4.125258-26.945828-17.027658-21.386972 27.969829-5.295543 16.384-22.557257 13.136457 23.727543 27.062857 7.343543z m74.371657-133.295543l-18.432 21.650285-10.181485-25.278171-25.3952-9.801143 21.416228-18.695314 2.574629-27.706514 23.405714 13.663085 27.062857-7.343543-6.9632 27.209143 14.043429 23.083886zM485.756343 471.069257l-156.350172 90.258286-40.374857-69.924572a14.365257 14.365257 0 0 1 5.763657-22.235428l127.1808-73.435429a20.48 20.48 0 0 1 14.5408-2.340571 114.102857 114.102857 0 0 1 34.2016 41.106286l19.163429-21.211429a155.062857 155.062857 0 0 0-45.173029-49.590857 43.300571 43.300571 0 0 0-29.608228 4.9152L274.490514 449.828571q-31.422171 18.139429-12.405028 51.082972l76.214857 132.008228 24.312686-14.043428-19.894858-34.464914 132.008229-76.214858 34.816 60.298972-167.965257 96.987428 13.312 23.054629 192.3072-111.030857z m221.447314 18.432l121.621943-70.217143-13.165714-22.820571-48.654629 28.086857q-8.543086-11.264-16.676571-20.099657l46.635885-26.916572-70.802285-122.616685-23.317943 13.458285 57.929143 100.352-59.538286 34.347886-59.392-102.868114-23.581257 13.604571 72.265143 125.162057 36.2496-20.918857q8.718629 9.8304 16.676571 20.128915l-49.444571 28.525714z m-12.639086-214.981486a389.266286 389.266286 0 0 0 17.993143-67.145142l-27.209143-7.314286a328.469943 328.469943 0 0 1-16.091428 68.110628z m17.056915 105.003886l22.528-13.019428-25.453715-44.090515a161.119086 161.119086 0 0 0-54.389028-56.758857 110.211657 110.211657 0 0 0-67.876572-8.133486l-1.082514 27.355429a96.168229 96.168229 0 0 1 59.509029 6.495086 128.731429 128.731429 0 0 1 41.311085 44.061257z m-42.481372 141.750857q7.870171-41.3696 12.873143-91.223771l-25.746286-7.753143a663.727543 663.727543 0 0 1-7.021714 79.725714 493.246171 493.246171 0 0 0-87.625143-39.965257l-2.545371 27.150629a464.457143 464.457143 0 0 1 92.072228 42.452114z m-117.321143-78.555428l93.242515-53.833143-11.702857-20.2752a391.606857 391.606857 0 0 0-69.280915-38.034286q5.705143-18.812343 10.0352-40.579657l-27.209143-7.285029a469.752686 469.752686 0 0 1-26.975085 95.992686l25.014857 6.495086q6.144-15.711086 11.527314-30.954057a407.317943 407.317943 0 0 1 49.737143 27.004343l-67.408457 38.912z m77.385143 26.945828a372.794514 372.794514 0 0 0 2.369829-52.048457l-24.254172-2.223543a373.408914 373.408914 0 0 1-1.492114 53.569829z m226.362515-65.477485l123.143314-71.094858-8.045714-13.955657 98.801371-57.051428-12.726857-22.030629a403.748571 403.748571 0 0 0-100.644572-98.304 283.794286 283.794286 0 0 1 12.288-79.374628l-26.916571-9.128229a358.136686 358.136686 0 0 0-10.766629 73.786514 254.537143 254.537143 0 0 0-75.922285-24.429714l-5.646629 28.2624a233.706057 233.706057 0 0 1 81.598172 27.209143 347.194514 347.194514 0 0 0 34.230857 133.617371l-8.104229 4.681143 8.338286 14.453029-18.256457 10.532571-78.116572-135.314286 25.658515-7.021714-13.897143-24.078628q-8.777143 2.340571-25.512229 7.314285l-25.892571-44.880457-23.552 13.604572 22.966857 39.789714q-43.856457 14.160457-85.489372 30.427428l7.928686 27.209143 21.240686-8.894171 87.771428 152.020114-17.495771 10.093714z m131.423085-125.220572a330.1376 330.1376 0 0 1-29.403428-103.599543 374.9888 374.9888 0 0 1 76.039314 76.682972z m-189.381485-69.368686q22.820571-8.455314 44.4416-15.506285l17.261714 29.9008-40.053029 23.113143z m34.084571 59.040915l40.053029-23.113143 19.456 33.704228-40.053029 23.113143z m32.036571 55.471543l40.053029-23.113143 19.602286 33.938285-40.053029 23.113143z"  horiz-adv-x="1318" />
      
      <glyph glyph-name="-kefu" unicode="&#58880;" d="M960.731328 541.536843A119.45857 119.45857 0 0 0 1080.815634 423.386628v-78.728886a119.45857 119.45857 0 0 0-120.084306-118.150214h-39.819523a337.442018 337.442018 0 0 0-266.165071-307.17918 82.141988 82.141988 0 0 0-73.950544-47.271463H500.417638a78.785771 78.785771 0 1 0 0 157.514657h80.094127a78.103151 78.103151 0 0 0 64.052548-31.514308 256.66527 256.66527 0 0 1 196.139595 248.07563V521.854621a297.394954 297.394954 0 0 1-300.239206 295.403978 297.394954 297.394954 0 0 1-300.182321-295.403978v-216.561322a79.639047 79.639047 0 0 0-80.094127-78.785771h-39.819523A119.45857 119.45857 0 0 0 0 344.657742V423.386628a119.45857 119.45857 0 0 0 120.084305 118.150215h41.981155A375.839415 375.839415 0 0 0 540.407817 895.987485a375.839415 375.839415 0 0 0 378.228587-354.450642h42.038039z"  horiz-adv-x="1080" />
      
      <glyph glyph-name="shijian" unicode="&#59242;" d="M512 896a512 512 0 1 1 512-512A512 512 0 0 1 512 896z m0-932.992A420.992 420.992 0 1 0 932.992 384 420.992 420.992 0 0 0 512-36.992zM557.525333 402.858667v311.466666a45.525333 45.525333 0 1 1-91.008 0v-330.410666a45.482667 45.482667 0 0 1 13.312-32.213334l181.546667-181.546666a45.525333 45.525333 0 0 1 64.341333 64.341333z"  horiz-adv-x="1024" />
      
      <glyph glyph-name="chenggong" unicode="&#59211;" d="M511.397979 895.990613A511.995307 511.995307 0 1 1 1023.990613 383.995307 509.520663 509.520663 0 0 1 511.397979 895.990613z m-42.666276-793.891389l-251.731026 238.333815 65.236736 44.074263 145.065337-115.198944c99.369756 130.302806 232.829866 220.41398 360.74336 319.655736l18.431831-24.618441c-151.849275-128.638821-251.816358-293.757307-337.83157-462.246429z"  horiz-adv-x="1024" />
      
      <glyph glyph-name="dianhua" unicode="&#59216;" d="M732.420339 444.51837a36.000497 36.000497 0 1 1 72.000993 0 216.685453 216.685453 0 0 1-216.045634 216.045634 36.000497 36.000497 0 0 1 0-72.000993 144.428532 144.428532 0 0 0 144.044641-144.044641z m144.044641 0a36.000497 36.000497 0 1 1 72.000993 0 361.199295 361.199295 0 0 1-360.04762 360.04762 36.043151 36.043151 0 0 1 0-72.043648 288.942374 288.942374 0 0 0 288.089281-288.046626z m-486.262631 126.001738a105.740795 105.740795 0 0 1 7.20863 144.044641L285.783847 854.941092A108.257417 108.257417 0 0 1 134.530576 872.856032c-3.582988-3.625642-7.165976-3.625642-7.165976-7.208631l-97.252526-97.252526c-93.626884-93.626884 39.626139-345.502396 280.923306-586.842217s489.547036-370.881893 583.131266-280.880651l97.252526 97.252526a104.375847 104.375847 0 0 1 0 151.210616l-7.165976 7.208631-140.461653 111.627132a105.69814 105.69814 0 0 1-143.959331-7.208631l-61.209375-61.252029a849.16811 849.16811 0 0 0-306.046875 306.132184l57.626387 64.792363z m-50.375103 97.252526a33.697147 33.697147 0 0 0-3.625642-46.920078L256.991981 538.059945A38.389155 38.389155 0 0 1 249.826005 494.850818a919.974774 919.974774 0 0 1 370.796583-370.839238 38.389155 38.389155 0 0 1 43.209127 7.20863l82.792611 82.792611a34.123693 34.123693 0 0 0 46.920079 3.582988l140.376343-115.167465a3.497679 3.497679 0 0 0 3.582988-3.582988 34.806167 34.806167 0 0 0 0-50.460411l-97.252526-97.252527c-46.920078-46.920078-269.961069 72.043648-482.46637 280.923306S30.197384 667.64467 76.946843 714.522094l100.750205 100.835514a35.232713 35.232713 0 0 0 50.460412-7.20863l111.627132-140.461653z"  horiz-adv-x="1024" />
      
      <glyph glyph-name="dengdai" unicode="&#59220;" d="M514.034039 386.486919l-189.1804 161.431615A46.029825 46.029825 0 1 0 384.496076 618.075841l131.544951-111.693225 143.630507 113.438432a46.117086 46.117086 0 0 0 57.199148-72.382446l-202.836643-160.38449zM515.124794 138.318534a46.029825 46.029825 0 0 0-46.029826 46.247976v255.105582a46.029825 46.029825 0 0 0 92.016021 0v-254.62565a46.029825 46.029825 0 0 0-46.029826-46.684278zM648.720362 230.770856h-270.50703a46.247976 46.247976 0 1 0 0 92.234172h270.943332a46.247976 46.247976 0 0 0 0-92.234172z m1.788837 115.052749H377.995181a46.029825 46.029825 0 0 0 0 92.01602h272.732169a46.029825 46.029825 0 0 0 0-92.01602zM512.027052-127.95637a511.95637 511.95637 0 1 0 425.743161 227.618577 50.261951 50.261951 0 0 0-83.551768 55.846613 411.432467 411.432467 0 1 1-235.602897-168.848743 50.480102 50.480102 0 1 0 27.268854-97.16438 520.464252 520.464252 0 0 0-134.031871-17.452067zM871.626881 7.428036a50.043801 50.043801 0 0 0-46.902428 30.541116l-53.839625 125.96029a50.261951 50.261951 0 1 0 92.234171 39.52893l34.11879-79.799574 79.755944 34.162421a50.305582 50.305582 0 1 0 39.52893-92.495953l-124.869535-53.839625a51.832637 51.832637 0 0 0-20.026247-4.057605z"  horiz-adv-x="1048" />
      
      <glyph glyph-name="waimaidingdan" unicode="&#59243;" d="M341.32736 45.070891a170.66368 170.66368 0 1 1-168.189057-173.095637h3.583938a167.591734 167.591734 0 0 1 164.605119 170.66368z m-170.023691-87.763797h-3.114612a83.966531 83.966531 0 0 0-82.857217 85.33184 78.419961 78.419961 0 0 0 0 9.685164 81.065248 81.065248 0 0 0 85.971829 75.646676 85.33184 85.33184 0 0 0 0-170.66368zM1023.98208 45.070891a170.66368 170.66368 0 1 1-168.189056-173.095637h3.583937a167.677066 167.677066 0 0 1 164.605119 170.66368z m-170.023691-87.763797h-3.114612a83.966531 83.966531 0 0 0-82.857217 85.33184 78.419961 78.419961 0 0 0 0 9.685164 81.065248 81.065248 0 0 0 85.971829 75.646676 85.33184 85.33184 0 0 0 0-170.66368zM277.669807 98.019298h475.213018v-85.33184H277.669807zM945.050128 371.465179H694.003855a63.99888 63.99888 0 0 1-8.063859 0 67.838813 67.838813 0 0 1-63.145562-71.550748v-51.199104a18.218348 18.218348 0 0 0-18.261013-16.085051h-175.2716a16.554377 16.554377 0 0 0-11.3918 5.674567 17.407695 17.407695 0 0 0-3.967931 13.098437V636.719204a59.476292 59.476292 0 0 1 0 8.533184 67.625483 67.625483 0 0 1-70.953425 63.99888H239.313145a100.478242 100.478242 0 0 1-97.406295-75.177351L21.54629 125.880144l81.363909-24.746234L223.910748 619.354175c0 6.613218 16.383713 6.783881 18.218348 6.783881h89.598432v-374.777441a103.464856 103.464856 0 0 1 100.307578-101.75822h172.75431a103.294192 103.294192 0 0 1 99.880919 101.843551v36.906021h227.665349v-192.93529h79.955934v203.8151a73.300051 73.300051 0 0 1 0 7.893195 68.009477 68.009477 0 0 1-67.24149 64.340207zM170.66368 896m31.99944 0l227.153358 0q31.99944 0 31.99944-31.99944l0-21.33296q0-31.99944-31.99944-31.99944l-227.153358 0q-31.99944 0-31.99944 31.99944l0 21.33296q0 31.99944 31.99944 31.99944ZM982.510806 709.165936h-338.29808a25.599552 25.599552 0 0 1-3.626603 0 29.226155 29.226155 0 0 1-26.282207-31.743444v-220.924134a24.447572 24.447572 0 0 1 0-3.541271 28.884828 28.884828 0 0 1 29.866144-28.03151h338.383412a17.066368 17.066368 0 0 1 3.413274 0 29.268821 29.268821 0 0 1 26.495536 31.572781V677.55049v3.626603a28.927494 28.927494 0 0 1-29.951476 27.988843z m-55.465696-198.993851h-227.366688V623.962094h227.580018z"  horiz-adv-x="1024" />
      
      <glyph glyph-name="-coupon-used" unicode="&#59267;" d="M412.291657 98.333257l-16.237714 22.440229-13.136457-23.581257-26.945829-7.343543 19.602286-19.8656-0.380343-27.062857 25.278171 11.351771 26.682515-9.274514-4.008229 26.799543 16.881372 21.269942z m160.914286-82.388114l-23.727543 14.189714-2.925714-26.8288-21.796572-17.554286 25.775543-10.4448 10.181486-25.014857 18.812343 20.48 28.116114 1.930972-14.189714 23.083885 7.226514 26.331429z m175.338057-55.296l17.408-20.743314 11.702857 25.278171 26.331429 10.4448-20.626286 17.554286-1.170286 27.209143-24.3712-14.306743-26.945828 6.319543 5.5296-26.331429-15.477029-23.405714z m-483.328 266.474057l16.618057-22.820571 11.995429 24.488228 25.921828 7.9872-19.8656 19.982629-0.643657 27.8528-24.224914-11.995429-26.331429 9.157486 4.885943-27.589486-15.594057-22.030628zM534.615771-84.49462900000003a485.434514 485.434514 0 0 0-359.862857 468.611658l-26.682514 15.477028a512.497371 512.497371 0 0 1 781.633829-450.9696l-26.682515 15.477029a483.620571 483.620571 0 0 0-368.405943-48.596115zM579.9936 84.64091399999995a310.125714 310.125714 0 0 0-208.340114 185.782857l-35.459657 20.48a337.1008 337.1008 0 0 1 405.182171-233.852342l-35.313371 20.48a310.6816 310.6816 0 0 0-126.069029 7.109485z m14.189714 716.8l-17.554285 20.743315-11.702858-25.278172-26.331428-10.4448 20.626286-17.788343 1.170285-27.209143 24.634515 14.306743 27.062857-6.319543-5.5296 26.624 15.594057 23.405715z m699.245715-533.972114L242.629486 873.8816a53.920914 53.920914 0 0 1-73.610972-19.719314l-161.792-279.9616a53.920914 53.920914 0 0 1 19.719315-73.610972l1050.8288-606.442057a53.920914 53.920914 0 0 1 73.610971 19.719314l161.674971 280.020115a51.4048 51.4048 0 0 1 5.412572 13.282743v27.326171a53.189486 53.189486 0 0 1-25.014857 33.002057z m-10.4448-71.797029l-148.245943-256.672914a40.462629 40.462629 0 0 0-55.178972-14.833371L52.077714 517.178514a40.462629 40.462629 0 0 0-14.833371 55.178972L185.490286 829.0304a40.462629 40.462629 0 0 0 55.178971 14.833371l1027.4816-593.042285a40.199314 40.199314 0 0 0 14.833372-55.178972zM785.759086 852.494629a485.434514 485.434514 0 0 0 359.862857-468.611658l26.8288-15.477028A512.497371 512.497371 0 0 1 390.816914 819.375543l26.565486-15.477029a483.210971 483.210971 0 0 0 368.376686 48.596115zM740.381257 683.388343a310.125714 310.125714 0 0 0 208.340114-185.782857l35.459658-20.48A337.1008 337.1008 0 0 1 578.998857 710.977829l35.313372-20.48a310.6816 310.6816 0 0 0 126.069028-7.109486z m42.159543 60.064914l23.990857-14.306743 2.925714 27.062857 21.9136 17.408-26.038857 10.561829-10.327771 25.014857-18.958629-20.48-28.350171-2.048 14.306743-23.200914-7.080229-26.185143z m196.022857-67.291428l0.380343 27.062857-25.3952-11.351772-26.945829 9.4208 4.125258-26.945828-17.027658-21.386972 27.969829-5.295543 16.384-22.557257 13.136457 23.727543 27.062857 7.343543z m74.371657-133.295543l-18.432 21.650285-10.181485-25.278171-25.3952-9.801143 21.416228-18.695314 2.574629-27.706514 23.405714 13.663085 27.062857-7.343543-6.9632 27.209143 14.043429 23.083886zM485.756343 471.069257l-156.350172 90.258286-40.374857-69.924572a14.365257 14.365257 0 0 1 5.763657-22.235428l127.1808-73.435429a20.48 20.48 0 0 1 14.5408-2.340571 114.102857 114.102857 0 0 1 34.2016 41.106286l19.163429-21.211429a155.062857 155.062857 0 0 0-45.173029-49.590857 43.300571 43.300571 0 0 0-29.608228 4.9152L274.490514 449.828571q-31.422171 18.139429-12.405028 51.082972l76.214857 132.008228 24.312686-14.043428-19.894858-34.464914 132.008229-76.214858 34.816 60.298972-167.965257 96.987428 13.312 23.054629 192.3072-111.030857z m180.984686 21.504l63.605028-36.717714 13.750857 23.815314 24.078629-13.897143-13.750857-23.815314 68.169143-39.350857-13.341258-23.054629-68.169142 39.350857-11.527315-20.011885 58.514286-33.792-43.446857-75.249372-59.538286 34.377143a168.111543 168.111543 0 0 0-40.023771-42.422857 233.091657 233.091657 0 0 1 70.8608-68.608l-19.163429-19.690057a246.784 246.784 0 0 0-76.068571 77.706971 131.832686 131.832686 0 0 0-78.467657 11.527315l2.194285 27.794285a110.357943 110.357943 0 0 1 62.902857-13.370514 249.856 249.856 0 0 0-16.5888 57.899886l25.8048 1.989485a185.9584 185.9584 0 0 1 14.833372-49.795657 150.996114 150.996114 0 0 1 29.403428 31.012572l-55.237485 31.890285 43.446857 75.249372 56.495543-32.621714 11.556571 20.011885-63.605028 36.717715z m67.7888-168.170057l18.724571 32.446171-35.986286 20.772572-18.724571-32.446172z m-60.064915 34.669714l18.724572 32.446172-33.938286 19.602285-18.724571-32.446171z m-101.9904 84.904229q-17.6128-7.080229-36.571428-13.019429l7.080228 30.398172a325.368686 325.368686 0 0 1 114.102857 71.2704l16.676572-23.815315a350.354286 350.354286 0 0 0-55.471543-41.632914l-98.450286-170.510628-24.312685 14.043428z m278.908343-148.860343l-22.381714-38.765714 58.280228-33.645715 22.381715 38.765715zM814.869943 234.78857100000005a175.776914 175.776914 0 0 0-73.786514-62.815085l-8.981943 27.150628a167.994514 167.994514 0 0 1 71.387428 69.2224l71.68 124.167315 194.3552-112.201143-110.153143-190.785829a29.4912 29.4912 0 0 0-45.641142-11.819886l-29.169372 16.822858 7.285029 27.209142q15.740343-10.766629 26.887314-17.2032 12.405029-7.168 21.035886 7.7824l21.796571 37.741715-62.844343 36.278857-41.691428-72.206629-24.312686 14.043429 41.691429 72.235886z m159.568457-62.405485l22.381714 38.765714-62.844343 36.278857-22.381714-38.765714z m35.108571 60.796343l21.942858 38.034285-62.844343 36.278857-21.942857-38.034285z m-65.243428 88.356571l-58.250972 33.645714-21.942857-38.034285 58.280229-33.645715z"  horiz-adv-x="1318" />
      
      <glyph glyph-name="-coupon-expired" unicode="&#59268;" d="M412.291657 98.333257l-16.237714 22.440229-13.136457-23.581257-26.945829-7.343543 19.602286-19.8656-0.380343-27.062857 25.278171 11.351771 26.682515-9.274514-4.008229 26.799543 16.881372 21.269942z m160.914286-82.388114l-23.727543 14.189714-2.925714-26.8288-21.796572-17.554286 25.775543-10.4448 10.181486-25.014857 18.812343 20.48 28.116114 1.930972-14.189714 23.083885 7.226514 26.331429z m175.338057-55.296l17.408-20.743314 11.702857 25.278171 26.331429 10.4448-20.626286 17.554286-1.170286 27.209143-24.3712-14.306743-26.945828 6.319543 5.5296-26.331429-15.477029-23.405714z m-483.328 266.474057l16.618057-22.820571 11.995429 24.488228 25.921828 7.9872-19.8656 19.982629-0.643657 27.8528-24.224914-11.995429-26.331429 9.157486 4.885943-27.589486-15.594057-22.030628zM534.615771-84.49462900000003a485.434514 485.434514 0 0 0-359.862857 468.611658l-26.682514 15.477028a512.497371 512.497371 0 0 1 781.633829-450.9696l-26.682515 15.477029a483.620571 483.620571 0 0 0-368.405943-48.596115zM579.9936 84.64091399999995a310.125714 310.125714 0 0 0-208.340114 185.782857l-35.459657 20.48a337.1008 337.1008 0 0 1 405.182171-233.852342l-35.313371 20.48a310.6816 310.6816 0 0 0-126.069029 7.109485z m14.189714 716.8l-17.554285 20.743315-11.702858-25.278172-26.331428-10.4448 20.626286-17.788343 1.170285-27.209143 24.634515 14.306743 27.062857-6.319543-5.5296 26.624 15.594057 23.405715z m699.245715-533.972114L242.629486 873.8816a53.920914 53.920914 0 0 1-73.610972-19.719314l-161.792-279.9616a53.920914 53.920914 0 0 1 19.719315-73.610972l1050.8288-606.442057a53.920914 53.920914 0 0 1 73.610971 19.719314l161.674971 280.020115a51.4048 51.4048 0 0 1 5.412572 13.282743v27.326171a53.189486 53.189486 0 0 1-25.014857 33.002057z m-10.4448-71.797029l-148.245943-256.672914a40.462629 40.462629 0 0 0-55.178972-14.833371L52.077714 517.178514a40.462629 40.462629 0 0 0-14.833371 55.178972L185.490286 829.0304a40.462629 40.462629 0 0 0 55.178971 14.833371l1027.4816-593.042285a40.199314 40.199314 0 0 0 14.833372-55.178972zM785.759086 852.494629a485.434514 485.434514 0 0 0 359.862857-468.611658l26.8288-15.477028A512.497371 512.497371 0 0 1 390.816914 819.375543l26.565486-15.477029a483.210971 483.210971 0 0 0 368.376686 48.596115zM740.381257 683.388343a310.125714 310.125714 0 0 0 208.340114-185.782857l35.459658-20.48A337.1008 337.1008 0 0 1 578.998857 710.977829l35.313372-20.48a310.6816 310.6816 0 0 0 126.069028-7.109486z m42.159543 60.064914l23.990857-14.306743 2.925714 27.062857 21.9136 17.408-26.038857 10.561829-10.327771 25.014857-18.958629-20.48-28.350171-2.048 14.306743-23.200914-7.080229-26.185143z m196.022857-67.291428l0.380343 27.062857-25.3952-11.351772-26.945829 9.4208 4.125258-26.945828-17.027658-21.386972 27.969829-5.295543 16.384-22.557257 13.136457 23.727543 27.062857 7.343543z m74.371657-133.295543l-18.432 21.650285-10.181485-25.278171-25.3952-9.801143 21.416228-18.695314 2.574629-27.706514 23.405714 13.663085 27.062857-7.343543-6.9632 27.209143 14.043429 23.083886zM485.756343 471.069257l-156.350172 90.258286-40.374857-69.924572a14.365257 14.365257 0 0 1 5.763657-22.235428l127.1808-73.435429a20.48 20.48 0 0 1 14.5408-2.340571 114.102857 114.102857 0 0 1 34.2016 41.106286l19.163429-21.211429a155.062857 155.062857 0 0 0-45.173029-49.590857 43.300571 43.300571 0 0 0-29.608228 4.9152L274.490514 449.828571q-31.422171 18.139429-12.405028 51.082972l76.214857 132.008228 24.312686-14.043428-19.894858-34.464914 132.008229-76.214858 34.816 60.298972-167.965257 96.987428 13.312 23.054629 192.3072-111.030857z m139.819886 73.669486a374.9888 374.9888 0 0 0 20.48-64.541257l-27.560229-7.402057a317.088914 317.088914 0 0 1-18.432 65.7408z m20.948114-314.806857q-13.165714 7.606857-46.811429 27.735771a217.4976 217.4976 0 0 0-39.584914 28.584229 69.983086 69.983086 0 0 0-17.642057 33.821257 16.530286 16.530286 0 0 1-6.465829 12.170971q-8.104229 4.681143-48.215771-19.104914l-8.221257 26.711771a124.869486 124.869486 0 0 0 57.519543 19.485258l41.252571 71.445942-34.435657 19.894858 13.165714 22.820571 57.490286-33.236114-55.442286-96.021943a19.309714 19.309714 0 0 0 1.872457-6.144 78.0288 78.0288 0 0 1 10.620343-26.038857 113.137371 113.137371 0 0 1 31.714743-26.448457q29.608229-17.759086 53.160229-31.363658l35.108571-19.924114q18.432-9.654857 28.496457-14.423771l-19.8656-20.977372z m-22.703543 58.397257l8.133486 26.360686q15.594057-11.029943 30.281143-19.514515 9.654857-5.558857 14.336 2.574629l59.099428 102.341486-90.463086 52.224 13.458286 23.317942 90.433829-52.224 22.528 39.029029 24.341943-14.043429-22.528-39.029028 33.938285-19.602286-13.458285-23.317943-33.938286 19.602286-62.464-108.192914q-13.897143-24.049371-39.497143-9.274515z m42.364343 127.210057a490.964114 490.964114 0 0 0 5.909943-67.584l-28.4672-2.486857a439.5008 439.5008 0 0 1-3.861943 68.754286z m209.188571-13.341257l23.317943-13.458286-15.067428-26.097371 43.8272-25.307429 14.774857 25.6 23.317943-13.458286-14.774858-25.6 13.165715-7.606857-12.873143-22.293943-13.165714 7.606858-58.660572-101.610058 14.423772-8.338285-12.873143-22.293943-121.358629 70.070857 12.873143 22.293943 16.471771-9.508572 58.660572 101.610058-13.692343 7.899428 12.873143 22.293943 13.692343-7.899429z m-63.2832-163.459657l43.8272-25.307429 11.410286 19.777829-43.8272 25.307428z m102.487772 76.302628l-43.8272 25.307429-11.556572-20.011886 43.8272-25.307428z m-78.935772-35.488914l43.8272-25.307429 11.410286 19.748572-43.8272 25.307428z m6.904686-92.16a383.7952 383.7952 0 0 0 4.5056-49.590857 175.3088 175.3088 0 0 1 69.485714 70.0416l69.924572 121.124571 89.7024-51.785143-114.688-198.656a25.336686 25.336686 0 0 0-39.204572-10.532571l-26.331428 15.213714 7.021714 27.384686q17.671314-11.527314 24.751543-15.623314 8.367543-4.827429 14.628571 6.056228l26.331429 45.611886-43.037257 24.868571a190.434743 190.434743 0 0 0-78.409143-65.536l-8.016457 25.892572-20.2752-1.784686a349.564343 349.564343 0 0 1-1.755429 56.056686z m-41.428114 10.708114a235.198171 235.198171 0 0 0-59.245715-28.291657l-11.117714 24.663772a216.005486 216.005486 0 0 1 56.5248 24.137142z m161.265371 33.5872l-22.528-39.029028 41.545143-23.990857 22.528 39.029028z m54.125714-2.194285l22.410972 38.765714-41.545143 23.990857-22.410971-38.765714z"  horiz-adv-x="1318" />
      
      <glyph glyph-name="-msg" unicode="&#59241;" d="M1024 896H170.666667a170.666667 170.666667 0 0 1-170.666667-170.666667v-512a170.666667 170.666667 0 0 1 170.666667-170.666666h170.410666v-87.210667A83.157333 83.157333 0 0 1 387.669333-119.46666700000003a85.333333 85.333333 0 0 1 37.034667-8.533333 83.413333 83.413333 0 0 1 50.773333 17.322667l199.253334 153.6H1024a170.666667 170.666667 0 0 1 170.666667 170.666666V725.333333a170.666667 170.666667 0 0 1-170.666667 170.666667z m85.333333-682.666667a85.333333 85.333333 0 0 0-85.333333-85.333333h-363.392a42.666667 42.666667 0 0 1-25.941333-8.789333l-208.298667-163.925334V85.33333300000004a42.666667 42.666667 0 0 1-42.666667 42.666667H170.666667a85.333333 85.333333 0 0 0-85.333334 85.333333V725.333333a85.333333 85.333333 0 0 0 85.333334 85.333334h853.333333a85.333333 85.333333 0 0 0 85.333333-85.333334zM341.333333 554.666667a85.333333 85.333333 0 1 1 85.333334-85.333334 85.333333 85.333333 0 0 1-85.333334 85.333334z m256 0a85.333333 85.333333 0 1 1 85.333334-85.333334 85.333333 85.333333 0 0 1-85.333334 85.333334z m256 0a85.333333 85.333333 0 1 1 85.333334-85.333334 85.333333 85.333333 0 0 1-85.333334 85.333334z"  horiz-adv-x="1194" />
      
      <glyph glyph-name="-setting" unicode="&#59250;" d="M924.436639 384.234559a173.40319 173.40319 0 0 0 57.488317 129.178127 47.167715 47.167715 0 0 1 9.425014 58.597143l-78.769231 137.238432a45.675066 45.675066 0 0 1-53.436841 20.897089 176.985548 176.985548 0 0 0-53.820666-8.529424A174.853192 174.853192 0 0 0 634.436222 859.110241 45.930948 45.930948 0 0 1 589.784687 895.70147H433.568287A45.930948 45.930948 0 0 1 388.916752 859.110241a174.59731 174.59731 0 0 0-170.88701-137.494315 178.776727 178.776727 0 0 0-53.820666 8.529424 45.504477 45.504477 0 0 1-53.436841-20.897089L32.258887 571.881887a47.295656 47.295656 0 0 1 9.425013-58.597143 173.829661 173.829661 0 0 0 0-258.313606 47.167715 47.167715 0 0 1-9.425013-58.597143l78.76923-137.366373a45.675066 45.675066 0 0 1 53.436842-20.897089 176.985548 176.985548 0 0 0 53.820665 8.529424 174.853192 174.853192 0 0 0 170.887011-137.494315 45.930948 45.930948 0 0 1 44.651534-36.591229h156.429637a45.930948 45.930948 0 0 1 44.651534 36.591229 174.59731 174.59731 0 0 0 170.88701 137.494315 178.776727 178.776727 0 0 0 53.820666-8.529424 45.504477 45.504477 0 0 1 53.436841 20.897089l78.470701 137.579609a47.295656 47.295656 0 0 1-9.425013 58.597143A173.531132 173.531132 0 0 0 924.436639 384.234559z m-63.586857-270.809212a240.401816 240.401816 0 0 1-55.441256 6.354421 244.837116 244.837116 0 0 1-173.445837-71.817751 248.547416 248.547416 0 0 1-53.223606-78.513348 221.167965 221.167965 0 0 1-8.529424-23.83974h-116.68252a241.979759 241.979759 0 0 1-8.529424 23.83974 245.178293 245.178293 0 0 1-53.223606 78.513348 248.63271 248.63271 0 0 1-78.172171 52.583899 245.092999 245.092999 0 0 1-150.586981 12.794136L104.460461 215.43725800000004a243.088584 243.088584 0 0 1 31.68681 42.305943 247.779768 247.779768 0 0 1-31.68681 295.288659l58.469202 102.139853a240.359169 240.359169 0 0 1 55.441256-6.354421 244.837116 244.837116 0 0 1 173.445837 71.81775 248.547416 248.547416 0 0 1 53.223606 78.513348 221.167965 221.167965 0 0 1 8.529424 23.83974h116.68252a242.150348 242.150348 0 0 1 8.529424-23.83974 245.22094 245.22094 0 0 1 53.223606-78.513348 248.590063 248.590063 0 0 1 78.172171-52.583899 245.050352 245.050352 0 0 1 150.586981-12.794136l58.469202-101.88397a243.088584 243.088584 0 0 1-31.68681-42.305943 247.779768 247.779768 0 0 1 31.68681-295.288659zM511.868399 603.653992a219.376786 219.376786 0 1 1 214.42972-219.291491 216.775311 216.775311 0 0 1-214.42972 219.291491z m100.903086-322.668111a141.204615 141.204615 0 0 0-202.57382 0 148.284036 148.284036 0 0 0 0 206.710591 141.204615 141.204615 0 0 0 202.57382 0 148.284036 148.284036 0 0 0 0-206.710591z"  horiz-adv-x="1024" />
      
      <glyph glyph-name="-check" unicode="&#59253;" d="M1024.409764-127.94878000000006V767.9487799999999A128.05122 128.05122 0 0 1 896.358543 896H0a1145.648659 1145.648659 0 0 1 299.844738-724.257703C599.638255-140.395358 1024.409764-127.94878000000006 1024.409764-127.94878000000006zM592.108844 351.37254900000005L437.627851 502.216887l-47.22529-46.14966 202.781913-198.120848 47.22529 46.098439 270.546619 266.346539-47.276511 46.098439z"  horiz-adv-x="1024" />
      
      <glyph glyph-name="-goods-add" unicode="&#59254;" d="M0 896m512 0l0 0q512 0 512-512l0 0q0-512-512-512l0 0q-512 0-512 512l0 0q0 512 512 512ZM256 435.2h512v-76.8h-512zM537.6 640v-512h-76.8v512z"  horiz-adv-x="1024" />
      
      <glyph glyph-name="-goods-minus" unicode="&#59263;" d="M511.98443 383.995094m-511.952431 0a511.952431 511.952431 0 1 1 1023.904862 0 511.952431 511.952431 0 1 1-1023.904862 0ZM511.941767-127.95733700000005a511.952431 511.952431 0 1 0 362.078357 149.959399 508.411427 508.411427 0 0 0-362.078357-149.959399z m0 981.242159a469.289728 469.289728 0 1 1 469.289729-469.289728 469.801681 469.801681 0 0 1-469.289729 469.289728zM256.008214 435.190337h511.952431v-76.792865H256.008214z"  horiz-adv-x="1024" />
      
      <glyph glyph-name="feichangcha" unicode="&#59214;" d="M512-127.998293a511.999147 511.999147 0 0 0-362.026063 874.02521 511.999147 511.999147 0 0 0 724.052126-724.052127A508.628486 508.628486 0 0 0 512-127.998293z m0 950.867748A438.868602 438.868602 0 1 1 950.868602 384.000853 439.465934 439.465934 0 0 1 512 822.869455zM329.130971 530.304609m-73.130544 0a73.130545 73.130545 0 1 1 146.261089 0 73.130545 73.130545 0 1 1-146.261089 0ZM694.826362 530.304609m-73.130545 0a73.130545 73.130545 0 1 1 146.26109 0 73.130545 73.130545 0 1 1-146.26109 0ZM292.565699 237.697097m36.565272 0l365.738058 0q36.565272 0 36.565272-36.565272l0 0q0-36.565272-36.565272-36.565273l-365.738058 0q-36.565272 0-36.565272 36.565273l0 0q0 36.565272 36.565272 36.565272Z"  horiz-adv-x="1024" />
      
      <glyph glyph-name="feichanghao" unicode="&#59230;" d="M512-127.998293a511.999147 511.999147 0 0 0-362.026063 874.02521 511.999147 511.999147 0 0 0 724.052126-724.052127A508.628486 508.628486 0 0 0 512-127.998293z m0 950.867748A438.868602 438.868602 0 1 1 950.868602 384.000853 439.465934 439.465934 0 0 1 512 822.869455zM329.130971 530.304609m-73.130544 0a73.130545 73.130545 0 1 1 146.261089 0 73.130545 73.130545 0 1 1-146.261089 0ZM694.869029 530.304609m-73.130545 0a73.130545 73.130545 0 1 1 146.261089 0 73.130545 73.130545 0 1 1-146.261089 0ZM512 18.262796a364.671392 364.671392 0 0 0-246.186256 95.274508 364.671392 364.671392 0 0 0-117.717137 233.898277h727.806786a364.756725 364.756725 0 0 0-117.67447-233.898277 364.714059 364.714059 0 0 0-246.228923-95.274508z m0 182.911695a362.666062 362.666062 0 0 1-219.476968-73.173211 362.666062 362.666062 0 0 1 219.476968-73.173211 362.666062 362.666062 0 0 1 219.519634 73.173211 362.666062 362.666062 0 0 1-219.519634 73.173211z"  horiz-adv-x="1024" />
      
      <glyph glyph-name="yiban" unicode="&#59246;" d="M512-127.998293a511.999147 511.999147 0 0 0-362.026063 874.02521 511.999147 511.999147 0 0 0 724.052126-724.052127A508.628486 508.628486 0 0 0 512-127.998293z m0 950.867748A438.868602 438.868602 0 1 1 950.868602 384.000853 439.465934 439.465934 0 0 1 512 822.869455zM329.130971 530.304609m-73.130544 0a73.130545 73.130545 0 1 1 146.261089 0 73.130545 73.130545 0 1 1-146.261089 0ZM694.826362 530.304609m-73.130545 0a73.130545 73.130545 0 1 1 146.26109 0 73.130545 73.130545 0 1 1-146.26109 0ZM679.594387 237.697097h77.738537a258.474236 258.474236 0 0 0-91.093181-131.071781 255.530241 255.530241 0 0 0-308.522153 0 258.474236 258.474236 0 0 0-91.050514 130.986448h77.738537a182.826362 182.826362 0 0 1 335.146108 0z"  horiz-adv-x="1024" />
      
      <glyph glyph-name="-check-mark" unicode="&#59383;" d="M74.2 413.3c9.7-10.4 19.4-20.8 29-31.2 23.3-25 46.5-49.9 69.8-74.9 28.1-30.2 56.3-60.4 84.4-90.6 24.3-26.1 48.7-52.2 73-78.3 11.8-12.7 23.3-25.8 35.5-38.1 0.2-0.2 0.3-0.4 0.5-0.5 8.5-9.2 23.9-8.4 32.5 0 4.9 4.8 9.8 9.6 14.8 14.4 13.4 13.1 26.8 26.1 40.2 39.2l59.4 57.9c24.2 23.6 48.4 47.1 72.5 70.7l79.5 77.4c26.7 26.1 53.5 52.1 80.2 78.2 24.9 24.3 49.9 48.6 74.8 72.9 21.2 20.6 42.3 41.3 63.5 61.9 15.1 14.8 30.3 29.5 45.4 44.3 7.2 7 14.5 13.9 21.5 21l0.9 0.9c8.6 8.4 9.1 24.2 0 32.5-9.3 8.5-23.3 9-32.5 0-4.9-4.8-9.8-9.6-14.8-14.4-13.4-13.1-26.8-26.1-40.2-39.2l-59.4-57.9c-24.2-23.6-48.4-47.1-72.5-70.7l-79.5-77.4c-26.7-26.1-53.5-52.1-80.2-78.2-24.9-24.3-49.9-48.6-74.8-72.9-21.2-20.6-42.3-41.3-63.5-61.9-15.1-14.8-30.3-29.5-45.4-44.3-7.2-7-14.5-13.8-21.5-21l-0.9-0.9h32.5c-9.7 10.4-19.4 20.8-29 31.2-23.3 25-46.5 49.9-69.8 74.9-28.1 30.2-56.3 60.4-84.4 90.6-24.3 26.1-48.7 52.2-73 78.3-11.8 12.7-23.3 25.8-35.5 38.1-0.2 0.2-0.3 0.4-0.5 0.5-8.2 8.8-24.3 8.9-32.5 0-8.7-9.4-8.8-23.1 0-32.5z"  horiz-adv-x="1024" />
      
      <glyph glyph-name="-minus" unicode="&#59008;" d="M66.608 438.016l894.244 0 0-132.032-894.244 0 0 132.032z"  horiz-adv-x="1024" />
      
      <glyph glyph-name="-arrow-down" unicode="&#59171;" d="M1706.519716 808.310484a83.121731 83.121731 0 0 0-21.331496-54.893051L926.995731-95.36280999999997a104.168808 104.168808 0 0 0-151.453625 0L21.331496 749.8621840000001A81.699631 81.699631 0 0 0 36.263544 872.873814a104.595438 104.595438 0 0 0 136.521577-13.438843l678.412693-760.325639L1533.8057 863.203535a104.595438 104.595438 0 0 0 136.521577 13.438843 84.686041 84.686041 0 0 0 36.192439-68.331894z"  horiz-adv-x="1706" />
      
      <glyph glyph-name="-arrow-up" unicode="&#59174;" d="M0-40.310483999999974a83.121731 83.121731 0 0 0 21.331496 54.893051L779.523985 863.36281a104.168808 104.168808 0 0 0 151.453625 0L1685.18822 18.137816000000043a81.699631 81.699631 0 0 0-14.932048-123.01163 104.595438 104.595438 0 0 0-136.521577 13.438843L855.321903 668.890668l-682.607887-764.094203a104.595438 104.595438 0 0 0-136.521577-13.438843A84.686041 84.686041 0 0 0 0-40.310483999999974z"  horiz-adv-x="1706" />
      
      <glyph glyph-name="-arrow-right" unicode="&#59179;" d="M257.391787-128A49.877333 49.877333 0 0 1 290.159787-115.20000000000005l509.482666 454.954667a62.506667 62.506667 0 0 1 0 90.88L292.463787 883.2a49.024 49.024 0 0 1-73.813334-8.96 62.762667 62.762667 0 0 1 8.064-81.92l456.234667-407.04L224.45312-24.32000000000005a62.762667 62.762667 0 0 1-8.064-81.92 50.816 50.816 0 0 1 41.002667-21.76z"  horiz-adv-x="1024" />
      
      <glyph glyph-name="-arrow-left" unicode="&#59180;" d="M766.58688-128a49.877333 49.877333 0 0 0-32.938667 12.8L224.336213 339.75466700000004a62.506667 62.506667 0 0 0 0 90.88L731.51488 883.2a49.024 49.024 0 0 0 73.813333-8.96 62.762667 62.762667 0 0 0-8.064-81.92L341.029547 385.237333l458.496-409.6a62.762667 62.762667 0 0 0 8.064-81.92 50.816 50.816 0 0 0-41.002667-21.717333z"  horiz-adv-x="1024" />
      
      <glyph glyph-name="-edit" unicode="&#59210;" d="M318.250136 200.87497199999996a53.75991 53.75991 0 0 1 76.031874 0l588.799018 588.543019a53.930577 53.930577 0 0 1 0 76.20254 53.75991 53.75991 0 0 1-75.94654 0L318.250136 277.07751199999996a53.930577 53.930577 0 0 1 0-76.20254z m0 0M970.28105 464.895865h-0.256a53.674577 53.674577 0 0 1-53.674577-53.674577v-431.444614H107.90382V788.479326h431.444614a53.75991 53.75991 0 0 1 37.97327 15.78664 53.75991 53.75991 0 0 1 15.701308 38.058603 53.674577 53.674577 0 0 1-15.743974 37.973271A53.674577 53.674577 0 0 1 539.263101 895.999147H53.802577A53.375911 53.375911 0 0 1 15.78664 880.425839a53.375911 53.375911 0 0 1-15.65864-38.015936v-916.819806a53.333244 53.333244 0 0 1 15.65864-38.015936 53.333244 53.333244 0 0 1 38.015937-15.573308h916.905138a53.418578 53.418578 0 0 1 37.973271 15.743974 53.418578 53.418578 0 0 1 15.573307 38.015937V411.135955a53.75991 53.75991 0 0 1-15.829307 37.97327 53.75991 53.75991 0 0 1-38.058603 15.701307z m0 0"  horiz-adv-x="1024" />
      
      <glyph glyph-name="-addr" unicode="&#59217;" d="M511.950689 401.142079a158.802356 158.802356 0 1 0 158.333031 158.802355 158.717024 158.717024 0 0 0-158.333031-158.802355z m0 243.622098a84.862409 84.862409 0 1 1 84.563748-84.862408 84.819743 84.819743 0 0 1-84.563748 85.075738zM310.098474-86.059453c0-23.1249 90.366306-41.897881 201.809549-41.897881s201.809549 18.772981 201.80955 41.897881-90.366306 41.897881-201.80955 41.897881-201.809549-18.772981-201.809549-41.897881zM511.950689-22.615309a39.423261 39.423261 0 0 0-26.879496 68.265386 1847.986684 1847.986684 0 0 1 159.911669 176.082032c100.776777 127.186949 154.023779 234.662267 154.023778 310.991502a287.098617 287.098617 0 0 1-574.111902 0c0-65.534771 38.953936-184.017883 224.507791-376.270278a194.641684 194.641684 0 0 0 13.909072-15.103717 39.380595 39.380595 0 0 0-61.780175-48.809751c-1.279976 1.407974-5.205236 5.461231-8.533173 9.087829a1425.978596 1425.978596 0 0 0-139.730713 165.330234C182.314203 367.26538 146.346878 456.693037 146.346878 532.723611A359.63059 359.63059 0 0 0 253.608866 789.742792a367.438444 367.438444 0 0 0 516.896975 0 359.673256 359.673256 0 0 0 107.261989-257.019181c0-95.827537-57.769583-217.254593-171.730113-360.8679a1893.425832 1893.425832 0 0 0-167.079534-183.761888 39.1246 39.1246 0 0 0-27.007494-10.709132z m-111.144583 116.051157l0.554657-0.682654z"  horiz-adv-x="1024" />
      
      <glyph glyph-name="-delete" unicode="&#59229;" d="M133.802667-121.94133299999999a94.933333 94.933333 0 0 0-8.533334 8.533333c3.328-3.157333 5.845333-6.058667 8.533334-8.533333z m-11.008 6.272zM1015.850667 737.066667a43.306667 43.306667 0 0 1-30.208 12.16h-211.584V815.146667A81.066667 81.066667 0 0 1 693.205333 896H331.946667a81.066667 81.066667 0 0 1-80.853334-80.853333V749.226667H38.528a41.130667 41.130667 0 0 1 0-82.090667h36.096v-714.368A81.066667 81.066667 0 0 1 155.477333-128h725.717334a81.066667 81.066667 0 0 1 80.853333 80.768V667.221333h23.594667a42.069333 42.069333 0 0 1 42.24 40.96 40.362667 40.362667 0 0 1-11.989334 28.885334zM331.861333 814.933333h360.874667v-66.346666H331.861333V814.933333z m549.248-861.866666H155.477333V667.136h725.632V-46.93333299999995z m-369.066666 576.554666a41.216 41.216 0 0 1-41.216-41.301333v-382.933333a41.258667 41.258667 0 0 1 82.517333 0V488.32a41.216 41.216 0 0 1-41.301333 41.301333z m-223.573334 0a41.216 41.216 0 0 1-41.216-41.301333v-382.933333a41.258667 41.258667 0 0 1 82.517334 0V488.32a41.301333 41.301333 0 0 1-41.301334 41.301333z m444.885334 0a41.216 41.216 0 0 1-41.301334-41.301333v-382.933333a41.258667 41.258667 0 0 1 82.517334 0V488.32a41.216 41.216 0 0 1-41.216 41.301333z"  horiz-adv-x="1027" />
      
      <glyph glyph-name="-wechat" unicode="&#59231;" d="M860.288 585.8133330000001a275.2 275.2 0 0 0 43.349333-3.029333C864.768 762.965333 671.232 896 450.005333 896 202.581333 896 0 729.6 0 517.845333A363.264 363.264 0 0 1 180.181333 217.60000000000002l-44.8-133.845333 156.842667 77.525333a764.117333 764.117333 0 0 1 157.866667-22.4c14.208 0 28.416 0.768 41.856 1.450667a321.237333 321.237333 0 0 0-14.208 93.44 366.933333 366.933333 0 0 0 382.72 352z m-242.176 121.088a52.821333 52.821333 0 0 0 56.064-55.466666 52.992 52.992 0 0 0-56.064-56.064 62.805333 62.805333 0 0 0-67.285333 56.234666 62.762667 62.762667 0 0 0 67.285333 55.296z m-314.624-111.36a63.488 63.488 0 0 0-68.010667 56.064 62.464 62.464 0 0 0 68.010667 55.466667 52.821333 52.821333 0 0 0 56.064-55.466667 52.992 52.992 0 0 0-56.064-56.064zM1270.656 238.93333299999995c0 177.92-180.138667 322.858667-381.952 322.858667-213.76 0-382.72-145.066667-382.72-322.858667s168.192-322.901333 382.72-322.901333A574.976 574.976 0 0 1 1024-61.48266699999999L1147.349333-128l-33.749333 111.36a336 336 0 0 1 157.056 255.573333zM764.586667 295.03999999999996a47.616 47.616 0 0 0-44.8 44.8 48.256 48.256 0 0 0 44.8 44.8 51.2 51.2 0 0 0 56.064-44.8 50.304 50.304 0 0 0-56.064-44.8z m247.466666 0a47.616 47.616 0 0 0-44.8 44.8 48.256 48.256 0 0 0 44.8 44.8 51.2 51.2 0 0 0 56.064-44.8 50.816 50.816 0 0 0-56.064-44.8z"  horiz-adv-x="1270" />
      
      <glyph glyph-name="-add" unicode="&#59233;" d="M0 426.666667h1024v-85.333334H0zM554.666667 896v-1024h-85.333334V896z"  horiz-adv-x="1024" />
      
    </font>
</defs>
</svg>
